<?xml version="1.0" encoding="utf-8" standalone="no"?>
<!DOCTYPE svg PUBLIC "-//W3C//DTD SVG 1.1//EN"
  "http://www.w3.org/Graphics/SVG/1.1/DTD/svg11.dtd">
<svg xmlns:xlink="http://www.w3.org/1999/xlink" width="548.39952pt" height="217.327963pt" viewBox="0 0 548.39952 217.327963" xmlns="http://www.w3.org/2000/svg" version="1.1">
 <metadata>
  <rdf:RDF xmlns:dc="http://purl.org/dc/elements/1.1/" xmlns:cc="http://creativecommons.org/ns#" xmlns:rdf="http://www.w3.org/1999/02/22-rdf-syntax-ns#">
   <cc:Work>
    <dc:type rdf:resource="http://purl.org/dc/dcmitype/StillImage"/>
    <dc:date>2026-05-13T14:45:35.018548</dc:date>
    <dc:format>image/svg+xml</dc:format>
    <dc:creator>
     <cc:Agent>
      <dc:title>Matplotlib v3.10.8, https://matplotlib.org/</dc:title>
     </cc:Agent>
    </dc:creator>
   </cc:Work>
  </rdf:RDF>
 </metadata>
 <defs>
  <style type="text/css">*{stroke-linejoin: round; stroke-linecap: butt}</style>
 </defs>
 <g id="figure_1">
  <g id="patch_1">
   <path d="M 0 217.327963 
L 548.39952 217.327963 
L 548.39952 0 
L 0 0 
z
" style="fill: #ffffff"/>
  </g>
  <g id="axes_1">
   <g id="patch_2">
    <path d="M 42.871 145.363258 
L 541.19952 145.363258 
L 541.19952 17.798437 
L 42.871 17.798437 
z
" style="fill: #ffffff"/>
   </g>
   <g id="matplotlib.axis_1">
    <g id="xtick_1">
     <g id="line2d_1">
      <path d="M 63.245784 145.363258 
L 63.245784 17.798437 
" clip-path="url(#p583abb183e)" style="fill: none; stroke: #cccccc; stroke-width: 0.8; stroke-linecap: round"/>
     </g>
     <g id="text_1">
      <!-- $\mathdefault{0.00}$ -->
      <g style="fill: #262626" transform="translate(53.433784 160.349883) scale(0.088 -0.088)">
       <defs>
        <path id="DejaVuSans-30" d="M 2034 4250 
Q 1547 4250 1301 3770 
Q 1056 3291 1056 2328 
Q 1056 1369 1301 889 
Q 1547 409 2034 409 
Q 2525 409 2770 889 
Q 3016 1369 3016 2328 
Q 3016 3291 2770 3770 
Q 2525 4250 2034 4250 
z
M 2034 4750 
Q 2819 4750 3233 4129 
Q 3647 3509 3647 2328 
Q 3647 1150 3233 529 
Q 2819 -91 2034 -91 
Q 1250 -91 836 529 
Q 422 1150 422 2328 
Q 422 3509 836 4129 
Q 1250 4750 2034 4750 
z
" transform="scale(0.015625)"/>
        <path id="DejaVuSans-2e" d="M 684 794 
L 1344 794 
L 1344 0 
L 684 0 
L 684 794 
z
" transform="scale(0.015625)"/>
       </defs>
       <use xlink:href="#DejaVuSans-30" transform="translate(0 0.78125)"/>
       <use xlink:href="#DejaVuSans-2e" transform="translate(63.623047 0.78125)"/>
       <use xlink:href="#DejaVuSans-30" transform="translate(95.410156 0.78125)"/>
       <use xlink:href="#DejaVuSans-30" transform="translate(159.033203 0.78125)"/>
      </g>
     </g>
    </g>
    <g id="xtick_2">
     <g id="line2d_2">
      <path d="M 120.158589 145.363258 
L 120.158589 17.798437 
" clip-path="url(#p583abb183e)" style="fill: none; stroke: #cccccc; stroke-width: 0.8; stroke-linecap: round"/>
     </g>
     <g id="text_2">
      <!-- $\mathdefault{0.25}$ -->
      <g style="fill: #262626" transform="translate(110.566589 160.349883) scale(0.088 -0.088)">
       <defs>
        <path id="DejaVuSans-32" d="M 1228 531 
L 3431 531 
L 3431 0 
L 469 0 
L 469 531 
Q 828 903 1448 1529 
Q 2069 2156 2228 2338 
Q 2531 2678 2651 2914 
Q 2772 3150 2772 3378 
Q 2772 3750 2511 3984 
Q 2250 4219 1831 4219 
Q 1534 4219 1204 4116 
Q 875 4013 500 3803 
L 500 4441 
Q 881 4594 1212 4672 
Q 1544 4750 1819 4750 
Q 2544 4750 2975 4387 
Q 3406 4025 3406 3419 
Q 3406 3131 3298 2873 
Q 3191 2616 2906 2266 
Q 2828 2175 2409 1742 
Q 1991 1309 1228 531 
z
" transform="scale(0.015625)"/>
        <path id="DejaVuSans-35" d="M 691 4666 
L 3169 4666 
L 3169 4134 
L 1269 4134 
L 1269 2991 
Q 1406 3038 1543 3061 
Q 1681 3084 1819 3084 
Q 2600 3084 3056 2656 
Q 3513 2228 3513 1497 
Q 3513 744 3044 326 
Q 2575 -91 1722 -91 
Q 1428 -91 1123 -41 
Q 819 9 494 109 
L 494 744 
Q 775 591 1075 516 
Q 1375 441 1709 441 
Q 2250 441 2565 725 
Q 2881 1009 2881 1497 
Q 2881 1984 2565 2268 
Q 2250 2553 1709 2553 
Q 1456 2553 1204 2497 
Q 953 2441 691 2322 
L 691 4666 
z
" transform="scale(0.015625)"/>
       </defs>
       <use xlink:href="#DejaVuSans-30" transform="translate(0 0.78125)"/>
       <use xlink:href="#DejaVuSans-2e" transform="translate(63.623047 0.78125)"/>
       <use xlink:href="#DejaVuSans-32" transform="translate(89.910156 0.78125)"/>
       <use xlink:href="#DejaVuSans-35" transform="translate(153.533203 0.78125)"/>
      </g>
     </g>
    </g>
    <g id="xtick_3">
     <g id="line2d_3">
      <path d="M 177.071394 145.363258 
L 177.071394 17.798437 
" clip-path="url(#p583abb183e)" style="fill: none; stroke: #cccccc; stroke-width: 0.8; stroke-linecap: round"/>
     </g>
     <g id="text_3">
      <!-- $\mathdefault{0.50}$ -->
      <g style="fill: #262626" transform="translate(167.259394 160.349883) scale(0.088 -0.088)">
       <use xlink:href="#DejaVuSans-30" transform="translate(0 0.78125)"/>
       <use xlink:href="#DejaVuSans-2e" transform="translate(63.623047 0.78125)"/>
       <use xlink:href="#DejaVuSans-35" transform="translate(95.410156 0.78125)"/>
       <use xlink:href="#DejaVuSans-30" transform="translate(159.033203 0.78125)"/>
      </g>
     </g>
    </g>
    <g id="xtick_4">
     <g id="line2d_4">
      <path d="M 233.984199 145.363258 
L 233.984199 17.798437 
" clip-path="url(#p583abb183e)" style="fill: none; stroke: #cccccc; stroke-width: 0.8; stroke-linecap: round"/>
     </g>
     <g id="text_4">
      <!-- $\mathdefault{0.75}$ -->
      <g style="fill: #262626" transform="translate(224.524199 160.349883) scale(0.088 -0.088)">
       <defs>
        <path id="DejaVuSans-37" d="M 525 4666 
L 3525 4666 
L 3525 4397 
L 1831 0 
L 1172 0 
L 2766 4134 
L 525 4134 
L 525 4666 
z
" transform="scale(0.015625)"/>
       </defs>
       <use xlink:href="#DejaVuSans-30" transform="translate(0 0.78125)"/>
       <use xlink:href="#DejaVuSans-2e" transform="translate(63.623047 0.78125)"/>
       <use xlink:href="#DejaVuSans-37" transform="translate(87.660156 0.78125)"/>
       <use xlink:href="#DejaVuSans-35" transform="translate(151.283203 0.78125)"/>
      </g>
     </g>
    </g>
    <g id="xtick_5">
     <g id="line2d_5">
      <path d="M 290.897004 145.363258 
L 290.897004 17.798437 
" clip-path="url(#p583abb183e)" style="fill: none; stroke: #cccccc; stroke-width: 0.8; stroke-linecap: round"/>
     </g>
     <g id="text_5">
      <!-- $\mathdefault{1.00}$ -->
      <g style="fill: #262626" transform="translate(281.085004 160.349883) scale(0.088 -0.088)">
       <defs>
        <path id="DejaVuSans-31" d="M 794 531 
L 1825 531 
L 1825 4091 
L 703 3866 
L 703 4441 
L 1819 4666 
L 2450 4666 
L 2450 531 
L 3481 531 
L 3481 0 
L 794 0 
L 794 531 
z
" transform="scale(0.015625)"/>
       </defs>
       <use xlink:href="#DejaVuSans-31" transform="translate(0 0.78125)"/>
       <use xlink:href="#DejaVuSans-2e" transform="translate(63.623047 0.78125)"/>
       <use xlink:href="#DejaVuSans-30" transform="translate(95.410156 0.78125)"/>
       <use xlink:href="#DejaVuSans-30" transform="translate(159.033203 0.78125)"/>
      </g>
     </g>
    </g>
    <g id="xtick_6">
     <g id="line2d_6">
      <path d="M 347.809809 145.363258 
L 347.809809 17.798437 
" clip-path="url(#p583abb183e)" style="fill: none; stroke: #cccccc; stroke-width: 0.8; stroke-linecap: round"/>
     </g>
     <g id="text_6">
      <!-- $\mathdefault{1.25}$ -->
      <g style="fill: #262626" transform="translate(338.217809 160.349883) scale(0.088 -0.088)">
       <use xlink:href="#DejaVuSans-31" transform="translate(0 0.78125)"/>
       <use xlink:href="#DejaVuSans-2e" transform="translate(63.623047 0.78125)"/>
       <use xlink:href="#DejaVuSans-32" transform="translate(89.910156 0.78125)"/>
       <use xlink:href="#DejaVuSans-35" transform="translate(153.533203 0.78125)"/>
      </g>
     </g>
    </g>
    <g id="xtick_7">
     <g id="line2d_7">
      <path d="M 404.722614 145.363258 
L 404.722614 17.798437 
" clip-path="url(#p583abb183e)" style="fill: none; stroke: #cccccc; stroke-width: 0.8; stroke-linecap: round"/>
     </g>
     <g id="text_7">
      <!-- $\mathdefault{1.50}$ -->
      <g style="fill: #262626" transform="translate(394.910614 160.349883) scale(0.088 -0.088)">
       <use xlink:href="#DejaVuSans-31" transform="translate(0 0.78125)"/>
       <use xlink:href="#DejaVuSans-2e" transform="translate(63.623047 0.78125)"/>
       <use xlink:href="#DejaVuSans-35" transform="translate(95.410156 0.78125)"/>
       <use xlink:href="#DejaVuSans-30" transform="translate(159.033203 0.78125)"/>
      </g>
     </g>
    </g>
    <g id="xtick_8">
     <g id="line2d_8">
      <path d="M 461.635419 145.363258 
L 461.635419 17.798437 
" clip-path="url(#p583abb183e)" style="fill: none; stroke: #cccccc; stroke-width: 0.8; stroke-linecap: round"/>
     </g>
     <g id="text_8">
      <!-- $\mathdefault{1.75}$ -->
      <g style="fill: #262626" transform="translate(452.175419 160.349883) scale(0.088 -0.088)">
       <use xlink:href="#DejaVuSans-31" transform="translate(0 0.09375)"/>
       <use xlink:href="#DejaVuSans-2e" transform="translate(63.623047 0.09375)"/>
       <use xlink:href="#DejaVuSans-37" transform="translate(87.660156 0.09375)"/>
       <use xlink:href="#DejaVuSans-35" transform="translate(151.283203 0.09375)"/>
      </g>
     </g>
    </g>
    <g id="xtick_9">
     <g id="line2d_9">
      <path d="M 518.548224 145.363258 
L 518.548224 17.798437 
" clip-path="url(#p583abb183e)" style="fill: none; stroke: #cccccc; stroke-width: 0.8; stroke-linecap: round"/>
     </g>
     <g id="text_9">
      <!-- $\mathdefault{2.00}$ -->
      <g style="fill: #262626" transform="translate(508.736224 160.349883) scale(0.088 -0.088)">
       <use xlink:href="#DejaVuSans-32" transform="translate(0 0.78125)"/>
       <use xlink:href="#DejaVuSans-2e" transform="translate(63.623047 0.78125)"/>
       <use xlink:href="#DejaVuSans-30" transform="translate(95.410156 0.78125)"/>
       <use xlink:href="#DejaVuSans-30" transform="translate(159.033203 0.78125)"/>
      </g>
     </g>
    </g>
    <g id="text_10">
     <!-- $t$ -->
     <g style="fill: #262626" transform="translate(290.11526 173.474508) scale(0.096 -0.096)">
      <defs>
       <path id="DejaVuSans-Oblique-74" d="M 2706 3500 
L 2619 3053 
L 1472 3053 
L 1100 1153 
Q 1081 1047 1072 975 
Q 1063 903 1063 863 
Q 1063 663 1183 572 
Q 1303 481 1569 481 
L 2150 481 
L 2053 0 
L 1503 0 
Q 991 0 739 200 
Q 488 400 488 806 
Q 488 878 497 964 
Q 506 1050 525 1153 
L 897 3053 
L 409 3053 
L 500 3500 
L 978 3500 
L 1172 4494 
L 1747 4494 
L 1556 3500 
L 2706 3500 
z
" transform="scale(0.015625)"/>
      </defs>
      <use xlink:href="#DejaVuSans-Oblique-74" transform="translate(0 0.78125)"/>
     </g>
    </g>
    <g id="text_11">
     <!-- $\times\mathdefault{10^{3}}\mathdefault{}$ -->
     <g style="fill: #262626" transform="translate(515.19952 172.778446) scale(0.1 -0.1)">
      <defs>
       <path id="DejaVuSans-d7" d="M 4488 3438 
L 3059 2003 
L 4488 575 
L 4116 197 
L 2681 1631 
L 1247 197 
L 878 575 
L 2303 2003 
L 878 3438 
L 1247 3816 
L 2681 2381 
L 4116 3816 
L 4488 3438 
z
" transform="scale(0.015625)"/>
       <path id="DejaVuSans-33" d="M 2597 2516 
Q 3050 2419 3304 2112 
Q 3559 1806 3559 1356 
Q 3559 666 3084 287 
Q 2609 -91 1734 -91 
Q 1441 -91 1130 -33 
Q 819 25 488 141 
L 488 750 
Q 750 597 1062 519 
Q 1375 441 1716 441 
Q 2309 441 2620 675 
Q 2931 909 2931 1356 
Q 2931 1769 2642 2001 
Q 2353 2234 1838 2234 
L 1294 2234 
L 1294 2753 
L 1863 2753 
Q 2328 2753 2575 2939 
Q 2822 3125 2822 3475 
Q 2822 3834 2567 4026 
Q 2313 4219 1838 4219 
Q 1578 4219 1281 4162 
Q 984 4106 628 3988 
L 628 4550 
Q 988 4650 1302 4700 
Q 1616 4750 1894 4750 
Q 2613 4750 3031 4423 
Q 3450 4097 3450 3541 
Q 3450 3153 3228 2886 
Q 3006 2619 2597 2516 
z
" transform="scale(0.015625)"/>
      </defs>
      <use xlink:href="#DejaVuSans-d7" transform="translate(0 0.765625)"/>
      <use xlink:href="#DejaVuSans-31" transform="translate(83.789062 0.765625)"/>
      <use xlink:href="#DejaVuSans-30" transform="translate(147.412109 0.765625)"/>
      <use xlink:href="#DejaVuSans-33" transform="translate(211.992188 39.046875) scale(0.7)"/>
     </g>
    </g>
   </g>
   <g id="matplotlib.axis_2">
    <g id="ytick_1">
     <g id="line2d_10">
      <path d="M 42.871 112.064394 
L 541.19952 112.064394 
" clip-path="url(#p583abb183e)" style="fill: none; stroke: #cccccc; stroke-width: 0.8; stroke-linecap: round"/>
     </g>
     <g id="text_12">
      <!-- $\mathdefault{0.5}$ -->
      <g style="fill: #262626" transform="translate(20.491 115.407707) scale(0.088 -0.088)">
       <use xlink:href="#DejaVuSans-30" transform="translate(0 0.78125)"/>
       <use xlink:href="#DejaVuSans-2e" transform="translate(63.623047 0.78125)"/>
       <use xlink:href="#DejaVuSans-35" transform="translate(95.410156 0.78125)"/>
      </g>
     </g>
    </g>
    <g id="ytick_2">
     <g id="line2d_11">
      <path d="M 42.871 78.277075 
L 541.19952 78.277075 
" clip-path="url(#p583abb183e)" style="fill: none; stroke: #cccccc; stroke-width: 0.8; stroke-linecap: round"/>
     </g>
     <g id="text_13">
      <!-- $\mathdefault{1.0}$ -->
      <g style="fill: #262626" transform="translate(20.491 81.620387) scale(0.088 -0.088)">
       <use xlink:href="#DejaVuSans-31" transform="translate(0 0.78125)"/>
       <use xlink:href="#DejaVuSans-2e" transform="translate(63.623047 0.78125)"/>
       <use xlink:href="#DejaVuSans-30" transform="translate(95.410156 0.78125)"/>
      </g>
     </g>
    </g>
    <g id="ytick_3">
     <g id="line2d_12">
      <path d="M 42.871 44.489756 
L 541.19952 44.489756 
" clip-path="url(#p583abb183e)" style="fill: none; stroke: #cccccc; stroke-width: 0.8; stroke-linecap: round"/>
     </g>
     <g id="text_14">
      <!-- $\mathdefault{1.5}$ -->
      <g style="fill: #262626" transform="translate(20.491 47.833068) scale(0.088 -0.088)">
       <use xlink:href="#DejaVuSans-31" transform="translate(0 0.09375)"/>
       <use xlink:href="#DejaVuSans-2e" transform="translate(63.623047 0.09375)"/>
       <use xlink:href="#DejaVuSans-35" transform="translate(95.410156 0.09375)"/>
      </g>
     </g>
    </g>
    <g id="text_15">
     <!-- $\tau \, \text{[Mbit/s]}$ -->
     <g style="fill: #262626" transform="translate(14.4945 103.564848) rotate(-90) scale(0.096 -0.096)">
      <defs>
       <path id="DejaVuSans-Oblique-3c4" d="M 2103 638 
Q 2188 488 2525 488 
L 2800 488 
L 2706 0 
L 2363 0 
Q 1800 0 1600 300 
Q 1403 606 1534 1269 
L 1856 2925 
L 541 2925 
L 653 3500 
L 3881 3500 
L 3769 2925 
L 2444 2925 
L 2113 1234 
Q 2025 781 2103 638 
z
" transform="scale(0.015625)"/>
       <path id="DejaVuSans-5b" d="M 550 4863 
L 1875 4863 
L 1875 4416 
L 1125 4416 
L 1125 -397 
L 1875 -397 
L 1875 -844 
L 550 -844 
L 550 4863 
z
" transform="scale(0.015625)"/>
       <path id="DejaVuSans-4d" d="M 628 4666 
L 1569 4666 
L 2759 1491 
L 3956 4666 
L 4897 4666 
L 4897 0 
L 4281 0 
L 4281 4097 
L 3078 897 
L 2444 897 
L 1241 4097 
L 1241 0 
L 628 0 
L 628 4666 
z
" transform="scale(0.015625)"/>
       <path id="DejaVuSans-62" d="M 3116 1747 
Q 3116 2381 2855 2742 
Q 2594 3103 2138 3103 
Q 1681 3103 1420 2742 
Q 1159 2381 1159 1747 
Q 1159 1113 1420 752 
Q 1681 391 2138 391 
Q 2594 391 2855 752 
Q 3116 1113 3116 1747 
z
M 1159 2969 
Q 1341 3281 1617 3432 
Q 1894 3584 2278 3584 
Q 2916 3584 3314 3078 
Q 3713 2572 3713 1747 
Q 3713 922 3314 415 
Q 2916 -91 2278 -91 
Q 1894 -91 1617 61 
Q 1341 213 1159 525 
L 1159 0 
L 581 0 
L 581 4863 
L 1159 4863 
L 1159 2969 
z
" transform="scale(0.015625)"/>
       <path id="DejaVuSans-69" d="M 603 3500 
L 1178 3500 
L 1178 0 
L 603 0 
L 603 3500 
z
M 603 4863 
L 1178 4863 
L 1178 4134 
L 603 4134 
L 603 4863 
z
" transform="scale(0.015625)"/>
       <path id="DejaVuSans-74" d="M 1172 4494 
L 1172 3500 
L 2356 3500 
L 2356 3053 
L 1172 3053 
L 1172 1153 
Q 1172 725 1289 603 
Q 1406 481 1766 481 
L 2356 481 
L 2356 0 
L 1766 0 
Q 1100 0 847 248 
Q 594 497 594 1153 
L 594 3053 
L 172 3053 
L 172 3500 
L 594 3500 
L 594 4494 
L 1172 4494 
z
" transform="scale(0.015625)"/>
       <path id="DejaVuSans-2f" d="M 1625 4666 
L 2156 4666 
L 531 -594 
L 0 -594 
L 1625 4666 
z
" transform="scale(0.015625)"/>
       <path id="DejaVuSans-73" d="M 2834 3397 
L 2834 2853 
Q 2591 2978 2328 3040 
Q 2066 3103 1784 3103 
Q 1356 3103 1142 2972 
Q 928 2841 928 2578 
Q 928 2378 1081 2264 
Q 1234 2150 1697 2047 
L 1894 2003 
Q 2506 1872 2764 1633 
Q 3022 1394 3022 966 
Q 3022 478 2636 193 
Q 2250 -91 1575 -91 
Q 1294 -91 989 -36 
Q 684 19 347 128 
L 347 722 
Q 666 556 975 473 
Q 1284 391 1588 391 
Q 1994 391 2212 530 
Q 2431 669 2431 922 
Q 2431 1156 2273 1281 
Q 2116 1406 1581 1522 
L 1381 1569 
Q 847 1681 609 1914 
Q 372 2147 372 2553 
Q 372 3047 722 3315 
Q 1072 3584 1716 3584 
Q 2034 3584 2315 3537 
Q 2597 3491 2834 3397 
z
" transform="scale(0.015625)"/>
       <path id="DejaVuSans-5d" d="M 1947 4863 
L 1947 -844 
L 622 -844 
L 622 -397 
L 1369 -397 
L 1369 4416 
L 622 4416 
L 622 4863 
L 1947 4863 
z
" transform="scale(0.015625)"/>
      </defs>
      <use xlink:href="#DejaVuSans-Oblique-3c4" transform="translate(0 0.015625)"/>
      <use xlink:href="#DejaVuSans-5b" transform="translate(76.440754 0.015625)"/>
      <use xlink:href="#DejaVuSans-4d" transform="translate(115.454426 0.015625)"/>
      <use xlink:href="#DejaVuSans-62" transform="translate(201.733723 0.015625)"/>
      <use xlink:href="#DejaVuSans-69" transform="translate(265.210286 0.015625)"/>
      <use xlink:href="#DejaVuSans-74" transform="translate(292.993489 0.015625)"/>
      <use xlink:href="#DejaVuSans-2f" transform="translate(332.202473 0.015625)"/>
      <use xlink:href="#DejaVuSans-73" transform="translate(365.893879 0.015625)"/>
      <use xlink:href="#DejaVuSans-5d" transform="translate(417.993489 0.015625)"/>
     </g>
    </g>
    <g id="text_16">
     <!-- $\times\mathdefault{10^{1}}\mathdefault{}$ -->
     <g style="fill: #262626" transform="translate(42.871 14.798437) scale(0.1 -0.1)">
      <use xlink:href="#DejaVuSans-d7" transform="translate(0 0.684375)"/>
      <use xlink:href="#DejaVuSans-31" transform="translate(83.789062 0.684375)"/>
      <use xlink:href="#DejaVuSans-30" transform="translate(147.412109 0.684375)"/>
      <use xlink:href="#DejaVuSans-31" transform="translate(211.992188 38.965625) scale(0.7)"/>
     </g>
    </g>
   </g>
   <g id="FillBetweenPolyCollection_1">
    <defs>
     <path id="m20588dd34f" d="M 65.522296 -92.024693 
L 65.522296 -82.821854 
L 67.798809 -89.032225 
L 70.075321 -97.582606 
L 72.351833 -105.123045 
L 74.628345 -110.837836 
L 76.904857 -113.401417 
L 79.18137 -115.437772 
L 81.457882 -117.892765 
L 83.734394 -118.964749 
L 86.010906 -121.842058 
L 88.287418 -128.071007 
L 90.563931 -129.316042 
L 92.840443 -134.495851 
L 95.116955 -138.334666 
L 97.393467 -137.815678 
L 99.669979 -140.348902 
L 101.946492 -139.97622 
L 104.223004 -139.528473 
L 106.499516 -145.34632 
L 108.776028 -100.33577 
L 111.05254 -100.427347 
L 113.329053 -101.413255 
L 115.605565 -105.944815 
L 117.882077 -107.032681 
L 120.158589 -107.250354 
L 122.435101 -108.714762 
L 124.711613 -110.05863 
L 126.988126 -110.159147 
L 129.264638 -111.709903 
L 131.54115 -110.280189 
L 133.817662 -113.662865 
L 136.094174 -114.214057 
L 138.370687 -116.460105 
L 140.647199 -118.363233 
L 142.923711 -118.374655 
L 145.200223 -120.260933 
L 147.476735 -118.322512 
L 149.753248 -118.698926 
L 152.02976 -120.868003 
L 154.306272 -122.933939 
L 156.582784 -123.058494 
L 158.859296 -122.894595 
L 161.135809 -124.198952 
L 163.412321 -127.175018 
L 165.688833 -126.439676 
L 167.965345 -129.076919 
L 170.241857 -130.337851 
L 172.51837 -129.183964 
L 174.794882 -127.257426 
L 177.071394 -125.938053 
L 179.347906 -127.727435 
L 181.624418 -127.379704 
L 183.900931 -129.641832 
L 186.177443 -129.74235 
L 188.453955 -130.515017 
L 190.730467 -131.211425 
L 193.006979 -133.407705 
L 195.283492 -131.854701 
L 197.560004 -133.526737 
L 199.836516 -132.499323 
L 202.113028 -133.314322 
L 204.38954 -136.531724 
L 206.666053 -139.974683 
L 208.942565 -141.056094 
L 211.219077 -139.311601 
L 213.495589 -139.846103 
L 215.772101 -139.078778 
L 218.048614 -139.271957 
L 220.325126 -139.103566 
L 222.601638 -141.352667 
L 224.87815 -142.66259 
L 227.154662 -142.491375 
L 229.431175 -141.622343 
L 231.707687 -139.716269 
L 233.984199 -139.967299 
L 236.260711 -138.583977 
L 238.537223 -137.510022 
L 240.813736 -139.411057 
L 243.090248 -141.811658 
L 245.36676 -141.189774 
L 247.643272 -138.182564 
L 249.919784 -140.437108 
L 252.196297 -143.519911 
L 254.472809 -144.71716 
L 256.749321 -143.822219 
L 259.025833 -145.126034 
L 261.302345 -144.593536 
L 263.578858 -143.437193 
L 265.85537 -145.118481 
L 268.131882 -150.33055 
L 270.408394 -147.842768 
L 272.684906 -148.921971 
L 274.961419 -151.634977 
L 277.237931 -150.72124 
L 279.514443 -152.566391 
L 281.790955 -149.309487 
L 284.067467 -151.729362 
L 286.34398 -152.181047 
L 288.620492 -149.548432 
L 290.897004 -149.577653 
L 293.173516 -147.265788 
L 295.450028 -150.972277 
L 297.72654 -150.61859 
L 300.003053 -149.566457 
L 302.279565 -149.286369 
L 304.556077 -151.341983 
L 306.832589 -154.35067 
L 309.109101 -151.691183 
L 311.385614 -153.148048 
L 313.662126 -150.331658 
L 315.938638 -149.993735 
L 318.21515 -148.101711 
L 320.491662 -152.666002 
L 322.768175 -153.643245 
L 325.044687 -153.156616 
L 327.321199 -146.724582 
L 329.597711 -147.255909 
L 331.874223 -147.081062 
L 334.150736 -151.339725 
L 336.427248 -150.749282 
L 338.70376 -152.486303 
L 340.980272 -152.942622 
L 343.256784 -149.432227 
L 345.533297 -148.875144 
L 347.809809 -150.676259 
L 350.086321 -149.46492 
L 352.362833 -151.460508 
L 354.639345 -149.783093 
L 356.915858 -149.889176 
L 359.19237 -152.115612 
L 361.468882 -152.183586 
L 363.745394 -153.337638 
L 366.021906 -152.04137 
L 368.298419 -149.882986 
L 370.574931 -151.045957 
L 372.851443 -151.345378 
L 375.127955 -149.651953 
L 377.404467 -149.00317 
L 379.68098 -151.516656 
L 381.957492 -152.890113 
L 384.234004 -150.337335 
L 386.510516 -150.271466 
L 388.787028 -147.736079 
L 391.063541 -145.985329 
L 393.340053 -145.348564 
L 395.616565 -146.759124 
L 397.893077 -143.222865 
L 400.169589 -142.492003 
L 402.446102 -139.030435 
L 404.722614 -144.161106 
L 406.999126 -144.415013 
L 409.275638 -144.781638 
L 411.55215 -143.92093 
L 413.828663 -147.284796 
L 416.105175 -141.707927 
L 418.381687 -141.289699 
L 420.658199 -142.745614 
L 422.934711 -141.666496 
L 425.211224 -141.630656 
L 427.487736 -141.937271 
L 429.764248 -145.567819 
L 432.04076 -148.038237 
L 434.317272 -147.693519 
L 436.593785 -147.551937 
L 438.870297 -148.657136 
L 441.146809 -149.256518 
L 443.423321 -145.91499 
L 445.699833 -148.145762 
L 447.976346 -149.253367 
L 450.252858 -146.209635 
L 452.52937 -144.109112 
L 454.805882 -144.297312 
L 457.082394 -143.191787 
L 459.358907 -144.235519 
L 461.635419 -143.613973 
L 463.911931 -145.169617 
L 466.188443 -147.265689 
L 468.464955 -146.814544 
L 470.741467 -148.106166 
L 473.01798 -148.917681 
L 475.294492 -148.348391 
L 477.571004 -147.864157 
L 479.847516 -148.73928 
L 482.124028 -150.762018 
L 484.400541 -151.441035 
L 486.677053 -152.237237 
L 488.953565 -151.018112 
L 491.230077 -154.351278 
L 493.506589 -156.677778 
L 495.783102 -157.769661 
L 498.059614 -156.051892 
L 500.336126 -154.997405 
L 502.612638 -153.669801 
L 504.88915 -151.480123 
L 507.165663 -155.159373 
L 509.442175 -156.387096 
L 511.718687 -153.729272 
L 513.995199 -153.864636 
L 516.271711 -155.817784 
L 518.548224 -153.072005 
L 518.548224 -187.92884 
L 518.548224 -187.92884 
L 516.271711 -190.565951 
L 513.995199 -188.409376 
L 511.718687 -187.962132 
L 509.442175 -189.263351 
L 507.165663 -187.881029 
L 504.88915 -185.468691 
L 502.612638 -185.765742 
L 500.336126 -191.666881 
L 498.059614 -193.731125 
L 495.783102 -193.570033 
L 493.506589 -190.413801 
L 491.230077 -189.105461 
L 488.953565 -183.37139 
L 486.677053 -185.272804 
L 484.400541 -184.496275 
L 482.124028 -185.557757 
L 479.847516 -182.452356 
L 477.571004 -180.260508 
L 475.294492 -179.144906 
L 473.01798 -181.399683 
L 470.741467 -180.998934 
L 468.464955 -179.138533 
L 466.188443 -180.532539 
L 463.911931 -175.56551 
L 461.635419 -174.88871 
L 459.358907 -174.318588 
L 457.082394 -174.247642 
L 454.805882 -176.015469 
L 452.52937 -176.670905 
L 450.252858 -175.069876 
L 447.976346 -181.226849 
L 445.699833 -182.223304 
L 443.423321 -177.526748 
L 441.146809 -181.244627 
L 438.870297 -177.337997 
L 436.593785 -178.41738 
L 434.317272 -178.784037 
L 432.04076 -178.37327 
L 429.764248 -173.419278 
L 427.487736 -171.97782 
L 425.211224 -172.452435 
L 422.934711 -171.147719 
L 420.658199 -173.527914 
L 418.381687 -171.07708 
L 416.105175 -173.266542 
L 413.828663 -179.700597 
L 411.55215 -173.06694 
L 409.275638 -173.363714 
L 406.999126 -174.335023 
L 404.722614 -172.529092 
L 402.446102 -168.197036 
L 400.169589 -172.353485 
L 397.893077 -174.03291 
L 395.616565 -177.280869 
L 393.340053 -176.805627 
L 391.063541 -176.2503 
L 388.787028 -178.637674 
L 386.510516 -180.929119 
L 384.234004 -181.397438 
L 381.957492 -184.614314 
L 379.68098 -183.811723 
L 377.404467 -182.076346 
L 375.127955 -181.677535 
L 372.851443 -183.986792 
L 370.574931 -182.042578 
L 368.298419 -180.583827 
L 366.021906 -181.21527 
L 363.745394 -185.285846 
L 361.468882 -183.513319 
L 359.19237 -186.48292 
L 356.915858 -184.250917 
L 354.639345 -180.089062 
L 352.362833 -185.326257 
L 350.086321 -183.498969 
L 347.809809 -185.076595 
L 345.533297 -184.09238 
L 343.256784 -184.460352 
L 340.980272 -189.028146 
L 338.70376 -186.447133 
L 336.427248 -184.339739 
L 334.150736 -185.296911 
L 331.874223 -184.681533 
L 329.597711 -183.685831 
L 327.321199 -184.351809 
L 325.044687 -190.528745 
L 322.768175 -192.902163 
L 320.491662 -188.865431 
L 318.21515 -185.425682 
L 315.938638 -186.19755 
L 313.662126 -187.266002 
L 311.385614 -188.487833 
L 309.109101 -186.815057 
L 306.832589 -189.833486 
L 304.556077 -185.587358 
L 302.279565 -183.844987 
L 300.003053 -185.553855 
L 297.72654 -185.94352 
L 295.450028 -184.293257 
L 293.173516 -180.617434 
L 290.897004 -182.733855 
L 288.620492 -183.604597 
L 286.34398 -185.458239 
L 284.067467 -185.813364 
L 281.790955 -183.916913 
L 279.514443 -186.670578 
L 277.237931 -187.91523 
L 274.961419 -185.592584 
L 272.684906 -181.412147 
L 270.408394 -180.531198 
L 268.131882 -180.432592 
L 265.85537 -176.324268 
L 263.578858 -174.556134 
L 261.302345 -174.73656 
L 259.025833 -176.834069 
L 256.749321 -173.551743 
L 254.472809 -176.073224 
L 252.196297 -173.973765 
L 249.919784 -169.741114 
L 247.643272 -167.423985 
L 245.36676 -172.487136 
L 243.090248 -174.518575 
L 240.813736 -169.619819 
L 238.537223 -165.90216 
L 236.260711 -168.095302 
L 233.984199 -168.877384 
L 231.707687 -168.600749 
L 229.431175 -171.757299 
L 227.154662 -170.575325 
L 224.87815 -170.195978 
L 222.601638 -169.705137 
L 220.325126 -168.033471 
L 218.048614 -164.991526 
L 215.772101 -167.616661 
L 213.495589 -168.692664 
L 211.219077 -168.36588 
L 208.942565 -170.642668 
L 206.666053 -168.132894 
L 204.38954 -164.498235 
L 202.113028 -160.337056 
L 199.836516 -158.845879 
L 197.560004 -158.712559 
L 195.283492 -158.058847 
L 193.006979 -159.565832 
L 190.730467 -156.727532 
L 188.453955 -156.873537 
L 186.177443 -154.368507 
L 183.900931 -154.85016 
L 181.624418 -151.103925 
L 179.347906 -152.38158 
L 177.071394 -148.56406 
L 174.794882 -150.863591 
L 172.51837 -152.885922 
L 170.241857 -156.410743 
L 167.965345 -155.619384 
L 165.688833 -152.835578 
L 163.412321 -152.338843 
L 161.135809 -147.928265 
L 158.859296 -147.300165 
L 156.582784 -146.214579 
L 154.306272 -145.778498 
L 152.02976 -141.94134 
L 149.753248 -140.878145 
L 147.476735 -139.246018 
L 145.200223 -141.359363 
L 142.923711 -140.330729 
L 140.647199 -139.353917 
L 138.370687 -137.425779 
L 136.094174 -133.925282 
L 133.817662 -134.681865 
L 131.54115 -128.278278 
L 129.264638 -131.385239 
L 126.988126 -127.891147 
L 124.711613 -126.810651 
L 122.435101 -125.825736 
L 120.158589 -122.045178 
L 117.882077 -124.639837 
L 115.605565 -121.312488 
L 113.329053 -115.290873 
L 111.05254 -112.956032 
L 108.776028 -113.110241 
L 106.499516 -178.663125 
L 104.223004 -168.564527 
L 101.946492 -172.856731 
L 99.669979 -172.894564 
L 97.393467 -170.214717 
L 95.116955 -170.897126 
L 92.840443 -164.063822 
L 90.563931 -155.232475 
L 88.287418 -153.027171 
L 86.010906 -143.114307 
L 83.734394 -140.388473 
L 81.457882 -141.172213 
L 79.18137 -135.034798 
L 76.904857 -131.576809 
L 74.628345 -130.255141 
L 72.351833 -122.215748 
L 70.075321 -113.266738 
L 67.798809 -101.1671 
L 65.522296 -92.024693 
z
" style="stroke: #e41a1c; stroke-opacity: 0.2; stroke-width: 0.8"/>
    </defs>
    <g clip-path="url(#p583abb183e)">
     <use xlink:href="#m20588dd34f" x="0" y="217.327963" style="fill: #e41a1c; fill-opacity: 0.2; stroke: #e41a1c; stroke-opacity: 0.2; stroke-width: 0.8"/>
    </g>
   </g>
   <g id="FillBetweenPolyCollection_2">
    <defs>
     <path id="m5b9bfbf3be" d="M 65.522296 -86.288864 
L 65.522296 -79.158448 
L 67.798809 -83.031025 
L 70.075321 -87.657986 
L 72.351833 -90.856339 
L 74.628345 -94.177211 
L 76.904857 -95.270347 
L 79.18137 -96.867536 
L 81.457882 -100.543887 
L 83.734394 -103.329894 
L 86.010906 -105.135601 
L 88.287418 -107.540894 
L 90.563931 -111.295792 
L 92.840443 -114.710288 
L 95.116955 -116.622297 
L 97.393467 -117.307519 
L 99.669979 -120.258137 
L 101.946492 -121.270072 
L 104.223004 -123.703353 
L 106.499516 -129.064531 
L 108.776028 -92.748997 
L 111.05254 -92.35268 
L 113.329053 -93.434896 
L 115.605565 -98.037594 
L 117.882077 -97.964723 
L 120.158589 -97.683183 
L 122.435101 -100.88212 
L 124.711613 -102.229065 
L 126.988126 -101.44634 
L 129.264638 -100.88412 
L 131.54115 -104.155067 
L 133.817662 -106.701142 
L 136.094174 -108.042508 
L 138.370687 -107.943434 
L 140.647199 -108.314632 
L 142.923711 -111.366408 
L 145.200223 -111.029246 
L 147.476735 -110.501391 
L 149.753248 -113.034593 
L 152.02976 -113.666961 
L 154.306272 -114.269223 
L 156.582784 -116.170711 
L 158.859296 -119.327639 
L 161.135809 -118.560084 
L 163.412321 -120.620543 
L 165.688833 -120.128993 
L 167.965345 -120.841 
L 170.241857 -122.839888 
L 172.51837 -121.72622 
L 174.794882 -121.654716 
L 177.071394 -121.409866 
L 179.347906 -123.291703 
L 181.624418 -124.881394 
L 183.900931 -123.954708 
L 186.177443 -125.081964 
L 188.453955 -125.370853 
L 190.730467 -126.468809 
L 193.006979 -129.636086 
L 195.283492 -130.053211 
L 197.560004 -129.713607 
L 199.836516 -132.754542 
L 202.113028 -134.562038 
L 204.38954 -137.154847 
L 206.666053 -138.262123 
L 208.942565 -140.86503 
L 211.219077 -140.301956 
L 213.495589 -140.575785 
L 215.772101 -140.730311 
L 218.048614 -136.156068 
L 220.325126 -137.765353 
L 222.601638 -137.776029 
L 224.87815 -138.355541 
L 227.154662 -143.109828 
L 229.431175 -144.53159 
L 231.707687 -140.931922 
L 233.984199 -140.564061 
L 236.260711 -141.925459 
L 238.537223 -141.558084 
L 240.813736 -143.56198 
L 243.090248 -146.121273 
L 245.36676 -144.435271 
L 247.643272 -140.022703 
L 249.919784 -143.967089 
L 252.196297 -145.405697 
L 254.472809 -147.064922 
L 256.749321 -148.684307 
L 259.025833 -148.422376 
L 261.302345 -151.26442 
L 263.578858 -148.466695 
L 265.85537 -149.550297 
L 268.131882 -152.024687 
L 270.408394 -150.642996 
L 272.684906 -150.367717 
L 274.961419 -150.483038 
L 277.237931 -154.128684 
L 279.514443 -152.220594 
L 281.790955 -151.328605 
L 284.067467 -154.381015 
L 286.34398 -152.621412 
L 288.620492 -152.16646 
L 290.897004 -149.476637 
L 293.173516 -151.359221 
L 295.450028 -152.743896 
L 297.72654 -149.12421 
L 300.003053 -149.659649 
L 302.279565 -152.040623 
L 304.556077 -152.780231 
L 306.832589 -153.974488 
L 309.109101 -154.154343 
L 311.385614 -154.340771 
L 313.662126 -156.574051 
L 315.938638 -156.156796 
L 318.21515 -155.379224 
L 320.491662 -154.945752 
L 322.768175 -156.07683 
L 325.044687 -152.069723 
L 327.321199 -151.03658 
L 329.597711 -149.291054 
L 331.874223 -148.695432 
L 334.150736 -152.989377 
L 336.427248 -151.570782 
L 338.70376 -153.028333 
L 340.980272 -152.849921 
L 343.256784 -148.504071 
L 345.533297 -148.60043 
L 347.809809 -151.552555 
L 350.086321 -151.165319 
L 352.362833 -151.708046 
L 354.639345 -151.402452 
L 356.915858 -153.043295 
L 359.19237 -155.644993 
L 361.468882 -155.749135 
L 363.745394 -156.203473 
L 366.021906 -156.213814 
L 368.298419 -154.885707 
L 370.574931 -152.659605 
L 372.851443 -154.935343 
L 375.127955 -150.489231 
L 377.404467 -150.842974 
L 379.68098 -152.400264 
L 381.957492 -154.437499 
L 384.234004 -152.476224 
L 386.510516 -151.144588 
L 388.787028 -150.155139 
L 391.063541 -147.614323 
L 393.340053 -147.879382 
L 395.616565 -148.861873 
L 397.893077 -144.440012 
L 400.169589 -142.511784 
L 402.446102 -141.052397 
L 404.722614 -143.679427 
L 406.999126 -146.59448 
L 409.275638 -150.675761 
L 411.55215 -151.692981 
L 413.828663 -151.211849 
L 416.105175 -147.128503 
L 418.381687 -145.744952 
L 420.658199 -146.475082 
L 422.934711 -142.535008 
L 425.211224 -143.53159 
L 427.487736 -148.23814 
L 429.764248 -147.246026 
L 432.04076 -147.540459 
L 434.317272 -149.174795 
L 436.593785 -145.862926 
L 438.870297 -149.880631 
L 441.146809 -149.817067 
L 443.423321 -146.030478 
L 445.699833 -148.277471 
L 447.976346 -148.480903 
L 450.252858 -145.87784 
L 452.52937 -142.052099 
L 454.805882 -140.903776 
L 457.082394 -141.737239 
L 459.358907 -139.67242 
L 461.635419 -142.037156 
L 463.911931 -140.701408 
L 466.188443 -143.331356 
L 468.464955 -144.301359 
L 470.741467 -146.488156 
L 473.01798 -146.457601 
L 475.294492 -144.432292 
L 477.571004 -147.958359 
L 479.847516 -151.345006 
L 482.124028 -152.326222 
L 484.400541 -152.088896 
L 486.677053 -153.074444 
L 488.953565 -150.890197 
L 491.230077 -150.411115 
L 493.506589 -154.158267 
L 495.783102 -152.23962 
L 498.059614 -153.947729 
L 500.336126 -153.939834 
L 502.612638 -153.448477 
L 504.88915 -154.877082 
L 507.165663 -156.028529 
L 509.442175 -151.984856 
L 511.718687 -152.124054 
L 513.995199 -154.015935 
L 516.271711 -155.564376 
L 518.548224 -154.776852 
L 518.548224 -188.36732 
L 518.548224 -188.36732 
L 516.271711 -187.604048 
L 513.995199 -185.459186 
L 511.718687 -183.64657 
L 509.442175 -182.390693 
L 507.165663 -185.666495 
L 504.88915 -185.970897 
L 502.612638 -184.404584 
L 500.336126 -188.667318 
L 498.059614 -188.000774 
L 495.783102 -186.638233 
L 493.506589 -186.136171 
L 491.230077 -184.767152 
L 488.953565 -183.369261 
L 486.677053 -188.337542 
L 484.400541 -184.643849 
L 482.124028 -185.414993 
L 479.847516 -183.51289 
L 477.571004 -178.999748 
L 475.294492 -175.179433 
L 473.01798 -179.729415 
L 470.741467 -177.017009 
L 468.464955 -174.495844 
L 466.188443 -175.332746 
L 463.911931 -171.004913 
L 461.635419 -172.610497 
L 459.358907 -168.230847 
L 457.082394 -174.478762 
L 454.805882 -170.337184 
L 452.52937 -170.881993 
L 450.252858 -175.466345 
L 447.976346 -180.476205 
L 445.699833 -179.911783 
L 443.423321 -179.549348 
L 441.146809 -183.347659 
L 438.870297 -183.343657 
L 436.593785 -175.428734 
L 434.317272 -180.789957 
L 432.04076 -180.083572 
L 429.764248 -179.290127 
L 427.487736 -181.593612 
L 425.211224 -175.80312 
L 422.934711 -173.583166 
L 420.658199 -177.36548 
L 418.381687 -175.320357 
L 416.105175 -178.032747 
L 413.828663 -184.044101 
L 411.55215 -184.097758 
L 409.275638 -181.698112 
L 406.999126 -177.358842 
L 404.722614 -177.114522 
L 402.446102 -169.868 
L 400.169589 -172.672094 
L 397.893077 -175.57434 
L 395.616565 -180.046916 
L 393.340053 -179.429446 
L 391.063541 -179.646376 
L 388.787028 -184.300059 
L 386.510516 -184.427249 
L 384.234004 -187.487949 
L 381.957492 -188.111699 
L 379.68098 -184.978238 
L 377.404467 -184.376808 
L 375.127955 -184.04064 
L 372.851443 -189.23233 
L 370.574931 -188.842741 
L 368.298419 -186.974736 
L 366.021906 -189.153017 
L 363.745394 -189.703663 
L 361.468882 -193.48502 
L 359.19237 -190.518448 
L 356.915858 -189.069548 
L 354.639345 -184.53988 
L 352.362833 -184.965483 
L 350.086321 -183.56478 
L 347.809809 -183.704566 
L 345.533297 -181.225391 
L 343.256784 -179.348821 
L 340.980272 -187.039848 
L 338.70376 -185.36799 
L 336.427248 -185.739599 
L 334.150736 -188.572436 
L 331.874223 -185.014176 
L 329.597711 -186.425987 
L 327.321199 -184.711704 
L 325.044687 -188.439452 
L 322.768175 -191.795212 
L 320.491662 -192.030293 
L 318.21515 -193.096034 
L 315.938638 -193.043102 
L 313.662126 -191.631043 
L 311.385614 -188.920063 
L 309.109101 -189.374333 
L 306.832589 -192.461822 
L 304.556077 -189.49046 
L 302.279565 -186.50978 
L 300.003053 -183.937466 
L 297.72654 -184.956809 
L 295.450028 -185.981774 
L 293.173516 -182.380142 
L 290.897004 -182.290666 
L 288.620492 -185.601665 
L 286.34398 -186.84996 
L 284.067467 -187.102944 
L 281.790955 -183.46448 
L 279.514443 -187.475266 
L 277.237931 -190.174937 
L 274.961419 -185.34276 
L 272.684906 -182.183443 
L 270.408394 -178.526144 
L 268.131882 -180.691843 
L 265.85537 -180.064213 
L 263.578858 -179.869912 
L 261.302345 -182.524349 
L 259.025833 -181.879811 
L 256.749321 -180.363208 
L 254.472809 -178.149593 
L 252.196297 -175.934974 
L 249.919784 -174.311626 
L 247.643272 -168.938467 
L 245.36676 -175.811742 
L 243.090248 -178.032804 
L 240.813736 -178.968444 
L 238.537223 -171.147812 
L 236.260711 -175.554524 
L 233.984199 -173.511397 
L 231.707687 -177.143145 
L 229.431175 -176.769887 
L 227.154662 -173.137667 
L 224.87815 -167.318654 
L 222.601638 -169.976999 
L 220.325126 -167.649833 
L 218.048614 -166.606591 
L 215.772101 -171.974898 
L 213.495589 -169.97694 
L 211.219077 -168.18165 
L 208.942565 -167.452918 
L 206.666053 -168.465205 
L 204.38954 -165.625145 
L 202.113028 -160.880802 
L 199.836516 -159.500373 
L 197.560004 -155.023807 
L 195.283492 -154.343205 
L 193.006979 -152.98907 
L 190.730467 -147.765152 
L 188.453955 -150.740781 
L 186.177443 -150.484626 
L 183.900931 -148.086753 
L 181.624418 -147.666633 
L 179.347906 -144.063873 
L 177.071394 -142.646742 
L 174.794882 -142.749838 
L 172.51837 -143.711028 
L 170.241857 -147.207164 
L 167.965345 -146.911406 
L 165.688833 -145.562923 
L 163.412321 -146.162276 
L 161.135809 -139.958213 
L 158.859296 -140.783102 
L 156.582784 -136.324572 
L 154.306272 -132.183806 
L 152.02976 -129.646938 
L 149.753248 -128.533294 
L 147.476735 -124.907811 
L 145.200223 -126.934534 
L 142.923711 -127.352307 
L 140.647199 -123.778884 
L 138.370687 -124.165913 
L 136.094174 -123.256903 
L 133.817662 -121.761198 
L 131.54115 -118.378667 
L 129.264638 -113.797293 
L 126.988126 -114.792042 
L 124.711613 -117.066673 
L 122.435101 -115.633283 
L 120.158589 -110.70764 
L 117.882077 -111.210502 
L 115.605565 -110.374168 
L 113.329053 -104.636891 
L 111.05254 -103.350444 
L 108.776028 -103.668579 
L 106.499516 -156.476435 
L 104.223004 -150.606555 
L 101.946492 -148.808609 
L 99.669979 -148.183379 
L 97.393467 -144.89064 
L 95.116955 -144.455575 
L 92.840443 -139.641292 
L 90.563931 -131.859135 
L 88.287418 -128.459372 
L 86.010906 -123.855485 
L 83.734394 -118.789259 
L 81.457882 -117.300929 
L 79.18137 -110.16556 
L 76.904857 -108.673121 
L 74.628345 -107.732422 
L 72.351833 -103.404391 
L 70.075321 -97.192514 
L 67.798809 -91.362024 
L 65.522296 -86.288864 
z
" style="stroke: #377eb8; stroke-opacity: 0.2; stroke-width: 0.8"/>
    </defs>
    <g clip-path="url(#p583abb183e)">
     <use xlink:href="#m5b9bfbf3be" x="0" y="217.327963" style="fill: #377eb8; fill-opacity: 0.2; stroke: #377eb8; stroke-opacity: 0.2; stroke-width: 0.8"/>
    </g>
   </g>
   <g id="FillBetweenPolyCollection_3">
    <defs>
     <path id="m9bd1c1a2da" d="M 65.522296 -91.820295 
L 65.522296 -82.886713 
L 67.798809 -88.932881 
L 70.075321 -97.993687 
L 72.351833 -105.305457 
L 74.628345 -110.754436 
L 76.904857 -113.468427 
L 79.18137 -115.689794 
L 81.457882 -117.764745 
L 83.734394 -118.784977 
L 86.010906 -121.585485 
L 88.287418 -127.118111 
L 90.563931 -129.502133 
L 92.840443 -135.355917 
L 95.116955 -138.081468 
L 97.393467 -137.338948 
L 99.669979 -140.818566 
L 101.946492 -140.711937 
L 104.223004 -138.663694 
L 106.499516 -143.77228 
L 108.776028 -99.975038 
L 111.05254 -99.943933 
L 113.329053 -100.45918 
L 115.605565 -102.393302 
L 117.882077 -102.31035 
L 120.158589 -101.4278 
L 122.435101 -103.39446 
L 124.711613 -103.083712 
L 126.988126 -101.23949 
L 129.264638 -104.844454 
L 131.54115 -103.546222 
L 133.817662 -105.140818 
L 136.094174 -104.564726 
L 138.370687 -108.081286 
L 140.647199 -107.687558 
L 142.923711 -107.743018 
L 145.200223 -108.246415 
L 147.476735 -106.523399 
L 149.753248 -106.551583 
L 152.02976 -110.356945 
L 154.306272 -109.632229 
L 156.582784 -110.176233 
L 158.859296 -112.158076 
L 161.135809 -112.424354 
L 163.412321 -114.889185 
L 165.688833 -112.538952 
L 167.965345 -115.815797 
L 170.241857 -115.729407 
L 172.51837 -113.017162 
L 174.794882 -111.8079 
L 177.071394 -111.501421 
L 179.347906 -110.761026 
L 181.624418 -108.873146 
L 183.900931 -112.087694 
L 186.177443 -111.933449 
L 188.453955 -111.442369 
L 190.730467 -112.309117 
L 193.006979 -112.19972 
L 195.283492 -113.332988 
L 197.560004 -111.220968 
L 199.836516 -115.703864 
L 202.113028 -115.446018 
L 204.38954 -118.287241 
L 206.666053 -119.599982 
L 208.942565 -120.240141 
L 211.219077 -120.032749 
L 213.495589 -121.266136 
L 215.772101 -122.499657 
L 218.048614 -121.277515 
L 220.325126 -117.766471 
L 222.601638 -118.103007 
L 224.87815 -120.658174 
L 227.154662 -121.091642 
L 229.431175 -121.5933 
L 231.707687 -121.471004 
L 233.984199 -120.644316 
L 236.260711 -121.653322 
L 238.537223 -120.51263 
L 240.813736 -120.827301 
L 243.090248 -122.96146 
L 245.36676 -121.310193 
L 247.643272 -119.747809 
L 249.919784 -120.853935 
L 252.196297 -123.424489 
L 254.472809 -122.534921 
L 256.749321 -122.051701 
L 259.025833 -123.963757 
L 261.302345 -123.899622 
L 263.578858 -123.234333 
L 265.85537 -124.463215 
L 268.131882 -124.907006 
L 270.408394 -127.709237 
L 272.684906 -124.988909 
L 274.961419 -127.916623 
L 277.237931 -127.477987 
L 279.514443 -130.267465 
L 281.790955 -128.76021 
L 284.067467 -130.092937 
L 286.34398 -126.772554 
L 288.620492 -128.294747 
L 290.897004 -124.631989 
L 293.173516 -126.924218 
L 295.450028 -128.099086 
L 297.72654 -126.935629 
L 300.003053 -127.084742 
L 302.279565 -128.010683 
L 304.556077 -130.244262 
L 306.832589 -131.888884 
L 309.109101 -131.627622 
L 311.385614 -132.486568 
L 313.662126 -132.888172 
L 315.938638 -129.480419 
L 318.21515 -127.779533 
L 320.491662 -129.531346 
L 322.768175 -129.201808 
L 325.044687 -131.256184 
L 327.321199 -127.996547 
L 329.597711 -126.834861 
L 331.874223 -125.07372 
L 334.150736 -129.836636 
L 336.427248 -127.114231 
L 338.70376 -130.002877 
L 340.980272 -130.686131 
L 343.256784 -127.052041 
L 345.533297 -126.085657 
L 347.809809 -126.844931 
L 350.086321 -126.946681 
L 352.362833 -130.870908 
L 354.639345 -129.464092 
L 356.915858 -128.760589 
L 359.19237 -131.098 
L 361.468882 -132.47109 
L 363.745394 -132.48447 
L 366.021906 -131.116712 
L 368.298419 -131.407973 
L 370.574931 -133.576057 
L 372.851443 -132.331389 
L 375.127955 -129.128154 
L 377.404467 -129.06928 
L 379.68098 -129.455133 
L 381.957492 -130.022889 
L 384.234004 -129.454694 
L 386.510516 -129.501017 
L 388.787028 -127.273019 
L 391.063541 -126.784856 
L 393.340053 -123.291233 
L 395.616565 -125.430303 
L 397.893077 -125.310504 
L 400.169589 -125.854546 
L 402.446102 -125.942252 
L 404.722614 -129.466332 
L 406.999126 -128.463188 
L 409.275638 -128.015912 
L 411.55215 -128.530505 
L 413.828663 -129.714219 
L 416.105175 -126.840668 
L 418.381687 -127.567111 
L 420.658199 -128.571518 
L 422.934711 -127.511729 
L 425.211224 -126.975475 
L 427.487736 -126.905179 
L 429.764248 -127.915095 
L 432.04076 -130.271421 
L 434.317272 -129.664558 
L 436.593785 -129.882471 
L 438.870297 -130.575246 
L 441.146809 -132.665814 
L 443.423321 -129.782088 
L 445.699833 -131.198017 
L 447.976346 -130.902037 
L 450.252858 -128.425249 
L 452.52937 -129.310306 
L 454.805882 -128.780697 
L 457.082394 -130.085753 
L 459.358907 -130.248622 
L 461.635419 -128.910485 
L 463.911931 -129.57116 
L 466.188443 -131.585378 
L 468.464955 -131.03014 
L 470.741467 -131.936765 
L 473.01798 -131.932799 
L 475.294492 -133.265703 
L 477.571004 -133.399576 
L 479.847516 -136.073894 
L 482.124028 -135.927186 
L 484.400541 -135.039901 
L 486.677053 -136.980328 
L 488.953565 -135.753505 
L 491.230077 -137.843121 
L 493.506589 -138.762305 
L 495.783102 -139.698223 
L 498.059614 -136.619559 
L 500.336126 -136.15326 
L 502.612638 -136.498205 
L 504.88915 -138.271826 
L 507.165663 -139.082975 
L 509.442175 -138.297346 
L 511.718687 -138.682469 
L 513.995199 -141.287277 
L 516.271711 -140.822269 
L 518.548224 -138.083126 
L 518.548224 -170.441343 
L 518.548224 -170.441343 
L 516.271711 -170.692915 
L 513.995199 -170.661395 
L 511.718687 -168.682697 
L 509.442175 -167.113256 
L 507.165663 -166.567522 
L 504.88915 -165.214839 
L 502.612638 -166.278683 
L 500.336126 -168.448494 
L 498.059614 -170.826582 
L 495.783102 -170.820348 
L 493.506589 -167.5823 
L 491.230077 -170.243299 
L 488.953565 -165.689846 
L 486.677053 -167.031966 
L 484.400541 -164.521444 
L 482.124028 -165.021961 
L 479.847516 -165.693733 
L 477.571004 -161.552201 
L 475.294492 -163.794833 
L 473.01798 -160.194597 
L 470.741467 -161.848692 
L 468.464955 -161.873918 
L 466.188443 -160.252793 
L 463.911931 -155.059544 
L 461.635419 -154.846172 
L 459.358907 -158.051405 
L 457.082394 -159.536333 
L 454.805882 -157.196054 
L 452.52937 -154.623528 
L 450.252858 -151.382278 
L 447.976346 -158.234669 
L 445.699833 -157.69041 
L 443.423321 -157.055187 
L 441.146809 -161.357503 
L 438.870297 -156.828756 
L 436.593785 -156.735759 
L 434.317272 -155.990315 
L 432.04076 -157.046522 
L 429.764248 -150.860127 
L 427.487736 -148.597291 
L 425.211224 -148.766662 
L 422.934711 -150.935409 
L 420.658199 -152.636329 
L 418.381687 -151.601488 
L 416.105175 -151.625524 
L 413.828663 -156.076273 
L 411.55215 -153.847535 
L 409.275638 -151.27085 
L 406.999126 -150.958355 
L 404.722614 -153.088575 
L 402.446102 -147.20014 
L 400.169589 -148.026189 
L 397.893077 -150.193983 
L 395.616565 -150.50581 
L 393.340053 -148.806549 
L 391.063541 -151.770364 
L 388.787028 -152.795876 
L 386.510516 -156.867997 
L 384.234004 -157.146127 
L 381.957492 -155.424175 
L 379.68098 -155.807079 
L 377.404467 -154.237831 
L 375.127955 -155.223814 
L 372.851443 -160.544397 
L 370.574931 -161.158833 
L 368.298419 -158.10698 
L 366.021906 -156.755992 
L 363.745394 -158.122453 
L 361.468882 -157.991935 
L 359.19237 -156.956648 
L 356.915858 -156.628455 
L 354.639345 -154.28185 
L 352.362833 -156.250885 
L 350.086321 -152.810304 
L 347.809809 -153.482873 
L 345.533297 -150.845687 
L 343.256784 -154.792854 
L 340.980272 -157.506888 
L 338.70376 -156.864526 
L 336.427248 -154.182667 
L 334.150736 -157.858952 
L 331.874223 -154.375419 
L 329.597711 -156.687241 
L 327.321199 -156.297384 
L 325.044687 -160.633737 
L 322.768175 -161.460388 
L 320.491662 -160.629652 
L 318.21515 -160.408856 
L 315.938638 -158.172773 
L 313.662126 -161.05854 
L 311.385614 -161.689078 
L 309.109101 -162.006119 
L 306.832589 -163.255108 
L 304.556077 -161.032758 
L 302.279565 -157.093718 
L 300.003053 -155.552268 
L 297.72654 -153.751529 
L 295.450028 -153.951264 
L 293.173516 -153.195554 
L 290.897004 -149.836999 
L 288.620492 -154.221361 
L 286.34398 -153.480778 
L 284.067467 -156.331124 
L 281.790955 -156.565833 
L 279.514443 -157.013909 
L 277.237931 -154.704156 
L 274.961419 -154.265962 
L 272.684906 -152.494497 
L 270.408394 -151.628844 
L 268.131882 -149.826926 
L 265.85537 -149.779478 
L 263.578858 -149.387026 
L 261.302345 -149.019129 
L 259.025833 -148.615924 
L 256.749321 -146.484872 
L 254.472809 -150.051553 
L 252.196297 -151.459193 
L 249.919784 -147.270353 
L 247.643272 -143.370091 
L 245.36676 -149.150273 
L 243.090248 -149.383962 
L 240.813736 -147.421469 
L 238.537223 -145.971369 
L 236.260711 -147.588249 
L 233.984199 -148.792696 
L 231.707687 -148.794812 
L 229.431175 -149.571729 
L 227.154662 -148.315956 
L 224.87815 -146.231443 
L 222.601638 -143.693918 
L 220.325126 -142.896259 
L 218.048614 -147.292515 
L 215.772101 -149.020769 
L 213.495589 -146.27335 
L 211.219077 -144.346445 
L 208.942565 -147.174371 
L 206.666053 -147.342965 
L 204.38954 -140.522617 
L 202.113028 -135.628545 
L 199.836516 -136.422584 
L 197.560004 -132.512674 
L 195.283492 -132.982601 
L 193.006979 -131.18503 
L 190.730467 -130.40579 
L 188.453955 -131.855986 
L 186.177443 -132.175656 
L 183.900931 -130.582356 
L 181.624418 -127.097692 
L 179.347906 -129.418409 
L 177.071394 -130.611177 
L 174.794882 -131.626155 
L 172.51837 -133.437032 
L 170.241857 -137.350724 
L 167.965345 -137.719338 
L 165.688833 -136.164891 
L 163.412321 -134.439094 
L 161.135809 -132.282153 
L 158.859296 -132.746239 
L 156.582784 -131.575053 
L 154.306272 -128.054451 
L 152.02976 -128.889514 
L 149.753248 -124.228673 
L 147.476735 -125.220145 
L 145.200223 -125.708583 
L 142.923711 -124.5642 
L 140.647199 -125.861463 
L 138.370687 -125.862265 
L 136.094174 -122.773474 
L 133.817662 -121.968845 
L 131.54115 -120.404492 
L 129.264638 -122.099712 
L 126.988126 -117.688648 
L 124.711613 -118.923383 
L 122.435101 -119.017896 
L 120.158589 -115.2139 
L 117.882077 -116.951913 
L 115.605565 -115.449481 
L 113.329053 -112.911349 
L 111.05254 -113.141431 
L 108.776028 -113.046677 
L 106.499516 -177.229208 
L 104.223004 -169.47564 
L 101.946492 -173.476408 
L 99.669979 -171.624426 
L 97.393467 -169.336104 
L 95.116955 -169.912044 
L 92.840443 -164.010802 
L 90.563931 -154.851293 
L 88.287418 -152.752599 
L 86.010906 -144.44777 
L 83.734394 -140.81934 
L 81.457882 -141.11969 
L 79.18137 -134.666878 
L 76.904857 -131.905843 
L 74.628345 -129.242044 
L 72.351833 -122.548166 
L 70.075321 -112.883941 
L 67.798809 -101.786221 
L 65.522296 -91.820295 
z
" style="stroke: #4daf4a; stroke-opacity: 0.2; stroke-width: 0.8"/>
    </defs>
    <g clip-path="url(#p583abb183e)">
     <use xlink:href="#m9bd1c1a2da" x="0" y="217.327963" style="fill: #4daf4a; fill-opacity: 0.2; stroke: #4daf4a; stroke-opacity: 0.2; stroke-width: 0.8"/>
    </g>
   </g>
   <g id="line2d_13">
    <path d="M 65.522296 130.279586 
L 67.798809 122.42949 
L 70.075321 112.531477 
L 72.351833 103.976718 
L 74.628345 97.275677 
L 76.904857 94.970637 
L 79.18137 92.440543 
L 81.457882 88.459546 
L 83.734394 88.29972 
L 86.010906 85.13261 
L 88.287418 77.623471 
L 90.563931 75.53123 
L 92.840443 68.476294 
L 95.116955 63.985542 
L 97.393467 63.807013 
L 99.669979 61.809677 
L 101.946492 62.087067 
L 104.223004 63.65671 
L 106.499516 57.136847 
L 108.776028 110.8449 
L 111.05254 110.917555 
L 113.329053 109.199281 
L 115.605565 104.017211 
L 117.882077 102.06283 
L 120.158589 102.890145 
L 122.435101 100.793495 
L 124.711613 99.426007 
L 126.988126 98.928065 
L 129.264638 96.483895 
L 131.54115 98.134948 
L 133.817662 93.247293 
L 136.094174 93.975184 
L 138.370687 90.828135 
L 140.647199 88.640329 
L 142.923711 88.245566 
L 145.200223 87.385086 
L 147.476735 89.080864 
L 149.753248 87.95851 
L 152.02976 86.262974 
L 154.306272 83.874732 
L 156.582784 82.816298 
L 158.859296 82.880527 
L 161.135809 81.937097 
L 163.412321 77.715495 
L 165.688833 78.07887 
L 167.965345 76.027613 
L 170.241857 74.439185 
L 172.51837 77.10358 
L 174.794882 79.056482 
L 177.071394 80.668985 
L 179.347906 78.404188 
L 181.624418 78.769632 
L 183.900931 75.8325 
L 186.177443 75.408011 
L 188.453955 74.049112 
L 190.730467 74.160718 
L 193.006979 71.20176 
L 195.283492 72.739256 
L 197.560004 71.949243 
L 199.836516 72.000605 
L 202.113028 70.704674 
L 204.38954 67.301758 
L 206.666053 64.255286 
L 208.942565 61.955716 
L 211.219077 63.577949 
L 213.495589 63.457232 
L 218.048614 65.738135 
L 220.325126 63.656207 
L 222.601638 62.258318 
L 224.87815 61.737341 
L 227.154662 60.871604 
L 229.431175 62.134438 
L 231.707687 64.139833 
L 233.984199 63.542414 
L 238.537223 65.725208 
L 240.813736 63.727529 
L 243.090248 60.570632 
L 245.36676 60.572615 
L 247.643272 65.532761 
L 252.196297 59.648481 
L 254.472809 57.763473 
L 256.749321 58.782429 
L 259.025833 57.071406 
L 261.302345 58.210231 
L 263.578858 58.726656 
L 265.85537 56.990025 
L 268.131882 52.748282 
L 270.408394 52.72785 
L 272.684906 51.994496 
L 274.961419 48.534472 
L 277.237931 48.291466 
L 279.514443 48.919921 
L 281.790955 50.843153 
L 284.067467 49.135251 
L 286.34398 49.724585 
L 288.620492 51.479828 
L 290.897004 52.1106 
L 293.173516 53.048635 
L 295.450028 50.825877 
L 297.72654 49.996051 
L 300.003053 50.171229 
L 302.279565 50.896937 
L 304.556077 50.102378 
L 306.832589 46.13077 
L 309.109101 48.021117 
L 311.385614 46.890731 
L 313.662126 48.952679 
L 315.938638 50.322435 
L 318.21515 50.067837 
L 322.768175 44.508748 
L 325.044687 45.807097 
L 327.321199 52.901486 
L 329.597711 52.353749 
L 331.874223 52.884018 
L 334.150736 48.940435 
L 336.427248 50.29451 
L 338.70376 48.978733 
L 340.980272 47.052571 
L 343.256784 51.115807 
L 345.533297 51.473736 
L 347.809809 50.754365 
L 350.086321 51.741764 
L 352.362833 49.264655 
L 354.639345 52.497233 
L 356.915858 51.066435 
L 359.19237 48.473656 
L 361.468882 49.724011 
L 363.745394 48.075179 
L 366.021906 51.451918 
L 368.298419 51.647142 
L 370.574931 50.440755 
L 372.851443 50.25945 
L 375.127955 52.63441 
L 377.404467 52.485269 
L 379.68098 49.878628 
L 381.957492 48.574699 
L 384.234004 51.221742 
L 386.510516 51.679365 
L 388.787028 54.568524 
L 391.063541 56.363751 
L 393.340053 57.413633 
L 395.616565 55.809369 
L 397.893077 59.21906 
L 400.169589 60.782275 
L 402.446102 63.367641 
L 404.722614 60.292309 
L 406.999126 58.31509 
L 409.275638 58.315625 
L 411.55215 58.929033 
L 413.828663 55.334878 
L 416.105175 60.261303 
L 418.381687 61.001773 
L 420.658199 59.532496 
L 422.934711 61.295382 
L 425.211224 60.734602 
L 427.487736 61.269841 
L 429.764248 59.454735 
L 432.04076 54.845492 
L 434.317272 54.609872 
L 436.593785 55.19003 
L 438.870297 54.408227 
L 441.146809 52.754254 
L 443.423321 55.483875 
L 445.699833 52.919045 
L 447.976346 52.665114 
L 450.252858 57.194324 
L 452.52937 57.788112 
L 454.805882 57.868197 
L 457.082394 58.470929 
L 459.358907 58.791168 
L 461.635419 58.243504 
L 463.911931 57.830937 
L 466.188443 54.634569 
L 468.464955 54.891715 
L 470.741467 53.557495 
L 473.01798 53.364445 
L 475.294492 54.898984 
L 477.571004 54.215489 
L 479.847516 51.771359 
L 482.124028 49.710666 
L 484.400541 49.363661 
L 486.677053 49.541464 
L 488.953565 51.223263 
L 491.230077 46.478553 
L 493.506589 44.336215 
L 495.783102 42.633982 
L 498.059614 43.368728 
L 500.336126 45.045027 
L 502.612638 49.049751 
L 504.88915 49.275074 
L 507.165663 46.449476 
L 509.442175 45.124362 
L 511.718687 46.537985 
L 513.995199 47.089236 
L 516.271711 44.491958 
L 518.548224 47.60127 
L 518.548224 47.60127 
" clip-path="url(#p583abb183e)" style="fill: none; stroke: #e41a1c; stroke-width: 2; stroke-linecap: round"/>
   </g>
   <g id="line2d_14">
    <path d="M 65.522296 134.95476 
L 67.798809 130.352646 
L 70.075321 124.913668 
L 72.351833 120.401983 
L 74.628345 116.761057 
L 76.904857 115.783322 
L 79.18137 114.114593 
L 81.457882 109.132979 
L 83.734394 106.925793 
L 86.010906 103.69 
L 88.287418 99.730188 
L 90.563931 96.184061 
L 92.840443 90.589613 
L 95.116955 88.164605 
L 97.393467 87.542467 
L 99.669979 84.040771 
L 101.946492 83.234251 
L 104.223004 80.815507 
L 106.499516 74.773137 
L 108.776028 119.342475 
L 111.05254 119.486604 
L 113.329053 118.727619 
L 115.605565 113.567245 
L 117.882077 113.167455 
L 120.158589 113.123667 
L 122.435101 109.802324 
L 124.711613 108.423712 
L 129.264638 110.275715 
L 131.54115 105.97733 
L 133.817662 103.372418 
L 136.094174 101.426771 
L 138.370687 101.912518 
L 140.647199 101.140598 
L 142.923711 98.576945 
L 145.200223 98.50362 
L 147.476735 99.70828 
L 149.753248 96.792381 
L 152.02976 95.919272 
L 154.306272 94.742722 
L 156.582784 91.723671 
L 158.859296 88.382473 
L 161.135809 88.439601 
L 163.412321 84.643669 
L 165.688833 85.764831 
L 167.965345 84.136381 
L 170.241857 82.786822 
L 172.51837 84.813969 
L 174.794882 86.358663 
L 177.071394 85.55444 
L 179.347906 84.436524 
L 181.624418 82.108618 
L 183.900931 81.603062 
L 186.177443 80.022294 
L 188.453955 80.217988 
L 190.730467 80.151841 
L 193.006979 76.454655 
L 195.283492 75.344981 
L 197.560004 75.37987 
L 199.836516 71.028722 
L 202.113028 70.75327 
L 204.38954 66.070337 
L 206.666053 64.245043 
L 208.942565 63.773114 
L 211.219077 63.690526 
L 213.495589 62.885859 
L 215.772101 61.738886 
L 218.048614 65.358339 
L 220.325126 64.842075 
L 222.601638 64.693744 
L 224.87815 65.150868 
L 227.154662 59.341688 
L 229.431175 58.410453 
L 231.707687 59.36545 
L 233.984199 61.696547 
L 236.260711 59.379963 
L 238.537223 61.541287 
L 240.813736 57.539833 
L 243.090248 55.935951 
L 245.36676 58.224505 
L 247.643272 63.542676 
L 249.919784 59.366196 
L 252.196297 56.062774 
L 254.472809 55.006671 
L 256.749321 53.507751 
L 259.025833 52.834824 
L 261.302345 50.532128 
L 263.578858 53.877519 
L 265.85537 52.702277 
L 268.131882 52.200388 
L 270.408394 52.426496 
L 272.684906 51.493825 
L 274.961419 50.142519 
L 277.237931 45.975668 
L 279.514443 48.814795 
L 281.790955 51.125164 
L 284.067467 47.847563 
L 286.34398 47.984742 
L 288.620492 49.151763 
L 290.897004 52.103541 
L 293.173516 51.485869 
L 295.450028 49.354286 
L 297.72654 51.495058 
L 300.003053 50.044833 
L 302.279565 49.258445 
L 304.556077 47.312326 
L 306.832589 45.052112 
L 309.109101 46.933667 
L 311.385614 46.700886 
L 313.662126 43.79173 
L 315.938638 43.893304 
L 320.491662 45.186373 
L 322.768175 45.032625 
L 325.044687 47.606396 
L 327.321199 50.568606 
L 329.597711 50.833437 
L 331.874223 51.666251 
L 334.150736 47.28151 
L 336.427248 49.419469 
L 338.70376 48.571963 
L 340.980272 48.378225 
L 343.256784 53.502758 
L 345.533297 53.304196 
L 347.809809 50.562644 
L 350.086321 50.51696 
L 352.362833 50.204167 
L 354.639345 50.154491 
L 356.915858 47.408883 
L 359.19237 45.182749 
L 361.468882 43.627791 
L 366.021906 45.256701 
L 368.298419 47.109755 
L 370.574931 46.535457 
L 372.851443 45.57875 
L 375.127955 50.456334 
L 377.404467 50.541885 
L 379.68098 48.652783 
L 381.957492 48.307718 
L 384.234004 47.333401 
L 386.510516 49.547568 
L 388.787028 50.243481 
L 391.063541 53.571126 
L 393.340053 54.061007 
L 395.616565 53.458398 
L 397.893077 58.312979 
L 400.169589 60.331767 
L 402.446102 62.846614 
L 404.722614 57.219734 
L 406.999126 55.90304 
L 409.275638 52.289777 
L 411.55215 50.294619 
L 413.828663 50.888768 
L 416.105175 55.113259 
L 418.381687 57.026272 
L 420.658199 55.584991 
L 422.934711 59.404805 
L 425.211224 57.730321 
L 427.487736 53.768678 
L 429.764248 54.180464 
L 432.04076 54.248404 
L 434.317272 52.610742 
L 436.593785 56.626364 
L 438.870297 52.252184 
L 441.146809 51.010813 
L 443.423321 55.499058 
L 445.699833 53.894657 
L 447.976346 54.3911 
L 450.252858 57.194044 
L 452.52937 61.468233 
L 454.805882 61.858754 
L 457.082394 60.87897 
L 459.358907 63.667233 
L 461.635419 59.869515 
L 463.911931 61.663193 
L 466.188443 58.229921 
L 468.464955 58.510984 
L 470.741467 56.59718 
L 473.01798 55.292886 
L 475.294492 57.755919 
L 477.571004 53.43727 
L 479.847516 51.335689 
L 482.124028 49.76996 
L 484.400541 49.846133 
L 486.677053 47.2257 
L 488.953565 50.949416 
L 491.230077 50.256774 
L 493.506589 48.284464 
L 495.783102 47.705231 
L 498.059614 47.549424 
L 500.336126 46.741025 
L 502.612638 49.070971 
L 504.88915 47.599475 
L 507.165663 47.348559 
L 509.442175 49.963783 
L 511.718687 49.272348 
L 513.995199 48.005819 
L 516.271711 46.15274 
L 518.548224 47.005265 
L 518.548224 47.005265 
" clip-path="url(#p583abb183e)" style="fill: none; stroke: #377eb8; stroke-width: 2; stroke-linecap: round"/>
   </g>
   <g id="line2d_15">
    <path d="M 65.522296 130.279586 
L 67.798809 122.42949 
L 70.075321 112.531477 
L 72.351833 103.976718 
L 74.628345 97.275677 
L 76.904857 94.970637 
L 79.18137 92.440543 
L 81.457882 88.459546 
L 83.734394 88.29972 
L 86.010906 85.13261 
L 88.287418 77.623471 
L 90.563931 75.53123 
L 92.840443 68.476294 
L 95.116955 63.985542 
L 97.393467 63.807013 
L 99.669979 61.809677 
L 101.946492 62.087067 
L 104.223004 63.65671 
L 106.499516 57.136847 
L 108.776028 110.8449 
L 113.329053 111.239075 
L 115.605565 108.318378 
L 117.882077 107.927333 
L 120.158589 109.612178 
L 122.435101 106.621323 
L 124.711613 106.647439 
L 126.988126 107.76331 
L 129.264638 104.793209 
L 131.54115 105.740689 
L 133.817662 104.076886 
L 136.094174 103.966418 
L 138.370687 100.460923 
L 142.923711 101.431487 
L 145.200223 100.444768 
L 147.476735 101.583844 
L 149.753248 102.188123 
L 152.02976 98.17464 
L 154.306272 98.80659 
L 156.582784 97.979545 
L 158.859296 96.188511 
L 161.135809 95.628276 
L 163.412321 93.000476 
L 165.688833 93.934124 
L 167.965345 91.263509 
L 170.241857 91.281051 
L 172.51837 94.444158 
L 174.794882 96.024883 
L 177.071394 96.821299 
L 179.347906 97.898313 
L 181.624418 99.596749 
L 183.900931 95.877438 
L 186.177443 96.03255 
L 188.453955 95.799736 
L 190.730467 96.12076 
L 193.006979 96.093991 
L 195.283492 94.738199 
L 197.560004 95.734077 
L 199.836516 91.877052 
L 202.113028 92.31546 
L 204.38954 89.053404 
L 206.666053 84.288579 
L 208.942565 84.63377 
L 211.219077 85.808181 
L 213.495589 84.812412 
L 215.772101 82.414372 
L 218.048614 83.982413 
L 220.325126 87.22215 
L 222.601638 86.635028 
L 224.87815 84.841094 
L 227.154662 83.354046 
L 229.431175 83.36929 
L 231.707687 83.086734 
L 233.984199 83.778987 
L 236.260711 83.295478 
L 238.537223 85.121757 
L 240.813736 83.866417 
L 243.090248 81.469542 
L 245.36676 82.598174 
L 247.643272 86.365322 
L 249.919784 84.028351 
L 252.196297 81.282918 
L 254.472809 81.530987 
L 256.749321 84.024796 
L 259.025833 81.366508 
L 261.302345 81.427903 
L 263.578858 82.368552 
L 265.85537 81.184131 
L 268.131882 80.127249 
L 270.408394 77.85782 
L 272.684906 78.569395 
L 274.961419 77.581598 
L 277.237931 76.964346 
L 279.514443 73.833458 
L 281.790955 75.427687 
L 284.067467 74.864636 
L 286.34398 76.983388 
L 288.620492 76.508423 
L 290.897004 80.552668 
L 293.173516 78.493502 
L 295.450028 77.322717 
L 297.72654 78.357408 
L 300.003053 76.727825 
L 302.279565 74.817924 
L 304.556077 72.538257 
L 306.832589 71.569921 
L 309.109101 71.584554 
L 311.385614 71.252856 
L 313.662126 71.985655 
L 315.938638 74.153486 
L 318.21515 74.084721 
L 320.491662 72.871599 
L 322.768175 71.794854 
L 325.044687 71.540134 
L 327.321199 76.163557 
L 329.597711 76.516677 
L 331.874223 78.597348 
L 334.150736 74.576991 
L 336.427248 77.217044 
L 338.70376 74.783969 
L 340.980272 73.68401 
L 343.256784 76.596424 
L 345.533297 79.28578 
L 347.809809 77.881709 
L 350.086321 78.095093 
L 352.362833 74.068698 
L 354.639345 76.016694 
L 356.915858 75.109623 
L 359.19237 73.86301 
L 361.468882 72.760312 
L 363.745394 71.487299 
L 366.021906 74.050832 
L 368.298419 73.369343 
L 370.574931 70.640031 
L 372.851443 71.785357 
L 375.127955 76.249809 
L 377.404467 76.150414 
L 379.68098 75.012617 
L 381.957492 74.959343 
L 384.234004 73.733121 
L 386.510516 75.030075 
L 388.787028 77.72925 
L 391.063541 78.30068 
L 393.340053 81.466379 
L 395.616565 79.949202 
L 397.893077 80.836292 
L 400.169589 81.053254 
L 402.446102 81.672425 
L 404.722614 76.737503 
L 406.999126 78.38122 
L 411.55215 76.513793 
L 413.828663 75.113892 
L 416.105175 78.152437 
L 418.381687 78.355909 
L 420.658199 77.283244 
L 422.934711 78.858257 
L 425.211224 79.913087 
L 427.487736 79.908099 
L 429.764248 78.707509 
L 432.04076 74.366444 
L 434.317272 74.535136 
L 436.593785 74.509573 
L 438.870297 75.002534 
L 441.146809 71.422482 
L 443.423321 74.829082 
L 445.699833 73.576767 
L 447.976346 73.663616 
L 450.252858 78.177131 
L 452.52937 76.191442 
L 454.805882 74.946778 
L 457.082394 72.934362 
L 459.358907 74.170026 
L 461.635419 75.742321 
L 463.911931 75.56932 
L 466.188443 72.686777 
L 468.464955 71.382011 
L 470.741467 70.233732 
L 473.01798 71.197778 
L 475.294492 69.352195 
L 477.571004 70.314401 
L 479.847516 67.21987 
L 482.124028 67.996352 
L 484.400541 68.033947 
L 486.677053 67.232489 
L 488.953565 67.581238 
L 491.230077 64.678365 
L 493.506589 65.368076 
L 495.783102 62.453314 
L 500.336126 65.707436 
L 502.612638 66.897202 
L 504.88915 66.60551 
L 507.165663 65.012338 
L 509.442175 65.482532 
L 511.718687 64.035318 
L 513.995199 61.943423 
L 516.271711 62.242631 
L 518.548224 64.351198 
L 518.548224 64.351198 
" clip-path="url(#p583abb183e)" style="fill: none; stroke: #4daf4a; stroke-width: 2; stroke-linecap: round"/>
   </g>
   <g id="line2d_16"/>
   <g id="line2d_17"/>
   <g id="line2d_18"/>
   <g id="line2d_19">
    <path d="M 65.522296 137.257279 
L 67.798809 136.086148 
L 70.075321 133.961366 
L 72.351833 131.027649 
L 74.628345 129.588754 
L 76.904857 127.485787 
L 79.18137 127.080969 
L 81.457882 125.051733 
L 83.734394 123.996667 
L 86.010906 122.65344 
L 88.287418 120.095297 
L 90.563931 118.410578 
L 92.840443 117.261143 
L 95.116955 114.737907 
L 97.393467 114.302435 
L 99.669979 114.635322 
L 101.946492 114.093793 
L 106.499516 111.814706 
L 108.776028 132.950756 
L 111.05254 133.527453 
L 113.329053 133.890129 
L 117.882077 133.70513 
L 120.158589 132.635551 
L 122.435101 132.634209 
L 124.711613 132.502398 
L 126.988126 131.937863 
L 129.264638 131.860753 
L 131.54115 131.493798 
L 133.817662 129.389813 
L 136.094174 130.289203 
L 138.370687 129.774618 
L 140.647199 127.817402 
L 142.923711 127.213837 
L 145.200223 127.48317 
L 147.476735 127.227205 
L 149.753248 128.209625 
L 152.02976 127.849902 
L 154.306272 128.059918 
L 156.582784 127.641738 
L 158.859296 127.365561 
L 161.135809 127.75186 
L 165.688833 126.852765 
L 167.965345 126.428442 
L 170.241857 126.52221 
L 172.51837 126.906598 
L 174.794882 127.883579 
L 177.071394 129.593047 
L 179.347906 129.230118 
L 181.624418 128.101222 
L 183.900931 128.090282 
L 186.177443 127.639168 
L 188.453955 128.783556 
L 190.730467 127.653988 
L 193.006979 125.916212 
L 195.283492 125.219006 
L 197.560004 126.189078 
L 199.836516 127.357208 
L 206.666053 126.424152 
L 208.942565 125.765989 
L 211.219077 126.651567 
L 213.495589 125.632554 
L 215.772101 127.316591 
L 218.048614 127.60807 
L 220.325126 127.618999 
L 222.601638 127.145533 
L 224.87815 126.194652 
L 227.154662 125.018574 
L 229.431175 122.970706 
L 231.707687 122.60269 
L 233.984199 122.664773 
L 236.260711 125.041103 
L 238.537223 123.979964 
L 240.813736 126.026986 
L 243.090248 125.303904 
L 245.36676 125.386519 
L 247.643272 126.107973 
L 249.919784 124.91598 
L 252.196297 125.950309 
L 254.472809 125.630488 
L 256.749321 127.123206 
L 259.025833 126.051526 
L 261.302345 127.358738 
L 263.578858 125.904297 
L 265.85537 123.432912 
L 268.131882 123.939067 
L 270.408394 124.323068 
L 272.684906 124.416179 
L 274.961419 125.273668 
L 277.237931 125.704798 
L 279.514443 125.927248 
L 281.790955 126.664864 
L 284.067467 126.156308 
L 286.34398 127.126189 
L 288.620492 127.552571 
L 290.897004 128.595258 
L 293.173516 127.819188 
L 295.450028 126.62369 
L 297.72654 126.364577 
L 300.003053 126.738487 
L 302.279565 126.742124 
L 304.556077 127.235733 
L 306.832589 127.999936 
L 309.109101 129.194448 
L 311.385614 130.203786 
L 315.938638 129.656719 
L 318.21515 129.61617 
L 320.491662 131.091996 
L 322.768175 131.144032 
L 325.044687 131.40785 
L 327.321199 131.043888 
L 329.597711 132.486507 
L 331.874223 133.379081 
L 334.150736 133.36595 
L 336.427248 133.522254 
L 338.70376 134.836997 
L 340.980272 134.222799 
L 343.256784 134.596273 
L 345.533297 134.843592 
L 347.809809 134.598066 
L 350.086321 134.580284 
L 352.362833 133.709941 
L 354.639345 131.965106 
L 356.915858 132.371536 
L 359.19237 132.253849 
L 361.468882 132.913439 
L 363.745394 133.886062 
L 366.021906 134.026458 
L 368.298419 134.797534 
L 370.574931 135.053546 
L 372.851443 134.658612 
L 375.127955 135.615035 
L 379.68098 135.947812 
L 381.957492 135.879822 
L 384.234004 135.200995 
L 386.510516 135.656126 
L 388.787028 136.643983 
L 391.063541 136.480385 
L 393.340053 137.547414 
L 395.616565 137.570697 
L 397.893077 136.603347 
L 400.169589 137.286908 
L 402.446102 136.679815 
L 404.722614 137.142166 
L 406.999126 137.371487 
L 409.275638 136.91092 
L 411.55215 135.990301 
L 413.828663 137.101528 
L 416.105175 136.949766 
L 418.381687 136.667302 
L 420.658199 136.624391 
L 422.934711 136.158628 
L 425.211224 136.949931 
L 427.487736 137.416825 
L 429.764248 136.710523 
L 432.04076 136.273136 
L 434.317272 135.998918 
L 436.593785 137.006747 
L 438.870297 136.757207 
L 441.146809 137.333816 
L 443.423321 137.406279 
L 445.699833 137.61743 
L 447.976346 137.300174 
L 450.252858 137.992287 
L 452.52937 137.242933 
L 454.805882 136.797912 
L 457.082394 137.922031 
L 459.358907 138.831756 
L 461.635419 138.336896 
L 463.911931 138.389228 
L 466.188443 138.997114 
L 468.464955 138.154409 
L 470.741467 139.36966 
L 473.01798 138.836893 
L 475.294492 139.564857 
L 477.571004 137.917347 
L 479.847516 137.051761 
L 482.124028 137.9105 
L 484.400541 137.958953 
L 486.677053 138.369535 
L 488.953565 138.653328 
L 491.230077 137.436613 
L 493.506589 136.981727 
L 495.783102 136.369481 
L 498.059614 137.367682 
L 500.336126 137.831618 
L 502.612638 137.565661 
L 504.88915 138.035743 
L 507.165663 136.642461 
L 509.442175 135.75662 
L 511.718687 135.675226 
L 513.995199 136.399206 
L 516.271711 136.517804 
L 518.548224 136.133924 
L 518.548224 136.133924 
" clip-path="url(#p583abb183e)" style="fill: none; stroke-dasharray: 5.55,2.4; stroke-dashoffset: 0; stroke: #e41a1c; stroke-opacity: 0.8; stroke-width: 1.5"/>
   </g>
   <g id="line2d_20">
    <path d="M 65.522296 137.257279 
L 67.798809 136.086148 
L 70.075321 133.961366 
L 72.351833 131.027649 
L 74.628345 129.588754 
L 76.904857 127.485787 
L 79.18137 127.080969 
L 81.457882 125.051733 
L 83.734394 123.996667 
L 86.010906 122.65344 
L 88.287418 120.095297 
L 90.563931 118.410578 
L 92.840443 117.261143 
L 95.116955 114.737907 
L 97.393467 114.302435 
L 99.669979 114.635322 
L 101.946492 114.093793 
L 106.499516 111.814706 
L 108.776028 132.950756 
L 111.05254 133.527453 
L 113.329053 133.890129 
L 117.882077 133.70513 
L 120.158589 132.635551 
L 122.435101 132.634209 
L 124.711613 132.502398 
L 126.988126 131.937863 
L 129.264638 131.860753 
L 131.54115 131.493798 
L 133.817662 129.389813 
L 136.094174 130.289203 
L 138.370687 129.774618 
L 140.647199 127.817402 
L 142.923711 127.213837 
L 145.200223 127.48317 
L 147.476735 127.227205 
L 149.753248 128.209625 
L 152.02976 127.849902 
L 154.306272 128.059918 
L 156.582784 127.641738 
L 158.859296 127.365561 
L 161.135809 127.75186 
L 165.688833 126.852765 
L 167.965345 126.428442 
L 170.241857 126.52221 
L 172.51837 126.906598 
L 174.794882 127.883579 
L 177.071394 129.593047 
L 179.347906 129.230118 
L 181.624418 128.101222 
L 183.900931 128.090282 
L 186.177443 127.639168 
L 188.453955 128.783556 
L 190.730467 127.653988 
L 193.006979 125.916212 
L 195.283492 125.219006 
L 197.560004 126.189078 
L 199.836516 127.357208 
L 206.666053 126.424152 
L 208.942565 125.765989 
L 211.219077 126.651567 
L 213.495589 125.632554 
L 215.772101 127.316591 
L 218.048614 127.60807 
L 220.325126 127.618999 
L 222.601638 127.145533 
L 224.87815 126.194652 
L 227.154662 125.018574 
L 229.431175 122.970706 
L 231.707687 122.60269 
L 233.984199 122.664773 
L 236.260711 125.041103 
L 238.537223 123.979964 
L 240.813736 126.026986 
L 243.090248 125.303904 
L 245.36676 125.386519 
L 247.643272 126.107973 
L 249.919784 124.91598 
L 252.196297 125.950309 
L 254.472809 125.630488 
L 256.749321 127.123206 
L 259.025833 126.051526 
L 261.302345 127.358738 
L 263.578858 125.904297 
L 265.85537 123.432912 
L 268.131882 123.939067 
L 270.408394 124.323068 
L 272.684906 124.416179 
L 274.961419 125.273668 
L 277.237931 125.704798 
L 279.514443 125.927248 
L 281.790955 126.664864 
L 284.067467 126.156308 
L 286.34398 127.126189 
L 288.620492 127.552571 
L 290.897004 128.595258 
L 293.173516 127.819188 
L 295.450028 126.62369 
L 297.72654 126.364577 
L 300.003053 126.738487 
L 302.279565 126.742124 
L 304.556077 127.235733 
L 306.832589 127.999936 
L 309.109101 129.194448 
L 311.385614 130.203786 
L 315.938638 129.656719 
L 318.21515 129.61617 
L 320.491662 131.091996 
L 322.768175 131.144032 
L 325.044687 131.40785 
L 327.321199 131.043888 
L 329.597711 132.486507 
L 331.874223 133.379081 
L 334.150736 133.36595 
L 336.427248 133.522254 
L 338.70376 134.836997 
L 340.980272 134.222799 
L 343.256784 134.596273 
L 345.533297 134.843592 
L 347.809809 134.598066 
L 350.086321 134.580284 
L 352.362833 133.709941 
L 354.639345 131.965106 
L 356.915858 132.371536 
L 359.19237 132.253849 
L 361.468882 132.913439 
L 363.745394 133.886062 
L 366.021906 134.026458 
L 368.298419 134.797534 
L 370.574931 135.053546 
L 372.851443 134.658612 
L 375.127955 135.615035 
L 379.68098 135.947812 
L 381.957492 135.879822 
L 384.234004 135.200995 
L 386.510516 135.656126 
L 388.787028 136.643983 
L 391.063541 136.480385 
L 393.340053 137.547414 
L 395.616565 137.570697 
L 397.893077 136.603347 
L 400.169589 137.286908 
L 402.446102 136.679815 
L 404.722614 137.142166 
L 406.999126 137.371487 
L 409.275638 136.91092 
L 411.55215 135.990301 
L 413.828663 137.101528 
L 416.105175 136.949766 
L 418.381687 136.667302 
L 420.658199 136.624391 
L 422.934711 136.158628 
L 425.211224 136.949931 
L 427.487736 137.416825 
L 429.764248 136.710523 
L 432.04076 136.273136 
L 434.317272 135.998918 
L 436.593785 137.006747 
L 438.870297 136.757207 
L 441.146809 137.333816 
L 443.423321 137.406279 
L 445.699833 137.61743 
L 447.976346 137.300174 
L 450.252858 137.992287 
L 452.52937 137.242933 
L 454.805882 136.797912 
L 457.082394 137.922031 
L 459.358907 138.831756 
L 461.635419 138.336896 
L 463.911931 138.389228 
L 466.188443 138.997114 
L 468.464955 138.154409 
L 470.741467 139.36966 
L 473.01798 138.836893 
L 475.294492 139.564857 
L 477.571004 137.917347 
L 479.847516 137.051761 
L 482.124028 137.9105 
L 484.400541 137.958953 
L 486.677053 138.369535 
L 488.953565 138.653328 
L 491.230077 137.436613 
L 493.506589 136.981727 
L 495.783102 136.369481 
L 498.059614 137.367682 
L 500.336126 137.831618 
L 502.612638 137.565661 
L 504.88915 138.035743 
L 507.165663 136.642461 
L 509.442175 135.75662 
L 511.718687 135.675226 
L 513.995199 136.399206 
L 516.271711 136.517804 
L 518.548224 136.133924 
L 518.548224 136.133924 
" clip-path="url(#p583abb183e)" style="fill: none; stroke-dasharray: 5.55,2.4; stroke-dashoffset: 0; stroke: #377eb8; stroke-opacity: 0.8; stroke-width: 1.5"/>
   </g>
   <g id="line2d_21">
    <path d="M 65.522296 137.257279 
L 67.798809 136.086148 
L 70.075321 133.961366 
L 72.351833 131.027649 
L 74.628345 129.588754 
L 76.904857 127.485787 
L 79.18137 127.080969 
L 81.457882 125.051733 
L 83.734394 123.996667 
L 86.010906 122.65344 
L 88.287418 120.095297 
L 90.563931 118.410578 
L 92.840443 117.261143 
L 95.116955 114.737907 
L 97.393467 114.302435 
L 99.669979 114.635322 
L 101.946492 114.093793 
L 106.499516 111.814706 
L 108.776028 132.950756 
L 111.05254 133.527453 
L 113.329053 133.890129 
L 117.882077 133.70513 
L 120.158589 132.635551 
L 122.435101 132.634209 
L 124.711613 132.502398 
L 126.988126 131.937863 
L 129.264638 131.860753 
L 131.54115 131.493798 
L 133.817662 129.389813 
L 136.094174 130.289203 
L 138.370687 129.774618 
L 140.647199 127.817402 
L 142.923711 127.213837 
L 145.200223 127.48317 
L 147.476735 127.227205 
L 149.753248 128.209625 
L 152.02976 127.849902 
L 154.306272 128.059918 
L 156.582784 127.641738 
L 158.859296 127.365561 
L 161.135809 127.75186 
L 165.688833 126.852765 
L 167.965345 126.428442 
L 170.241857 126.52221 
L 172.51837 126.906598 
L 174.794882 127.883579 
L 177.071394 129.593047 
L 179.347906 129.230118 
L 181.624418 128.101222 
L 183.900931 128.090282 
L 186.177443 127.639168 
L 188.453955 128.783556 
L 190.730467 127.653988 
L 193.006979 125.916212 
L 195.283492 125.219006 
L 197.560004 126.189078 
L 199.836516 127.357208 
L 206.666053 126.424152 
L 208.942565 125.765989 
L 211.219077 126.651567 
L 213.495589 125.632554 
L 215.772101 127.316591 
L 218.048614 127.60807 
L 220.325126 127.618999 
L 222.601638 127.145533 
L 224.87815 126.194652 
L 227.154662 125.018574 
L 229.431175 122.970706 
L 231.707687 122.60269 
L 233.984199 122.664773 
L 236.260711 125.041103 
L 238.537223 123.979964 
L 240.813736 126.026986 
L 243.090248 125.303904 
L 245.36676 125.386519 
L 247.643272 126.107973 
L 249.919784 124.91598 
L 252.196297 125.950309 
L 254.472809 125.630488 
L 256.749321 127.123206 
L 259.025833 126.051526 
L 261.302345 127.358738 
L 263.578858 125.904297 
L 265.85537 123.432912 
L 268.131882 123.939067 
L 270.408394 124.323068 
L 272.684906 124.416179 
L 274.961419 125.273668 
L 277.237931 125.704798 
L 279.514443 125.927248 
L 281.790955 126.664864 
L 284.067467 126.156308 
L 286.34398 127.126189 
L 288.620492 127.552571 
L 290.897004 128.595258 
L 293.173516 127.819188 
L 295.450028 126.62369 
L 297.72654 126.364577 
L 300.003053 126.738487 
L 302.279565 126.742124 
L 304.556077 127.235733 
L 306.832589 127.999936 
L 309.109101 129.194448 
L 311.385614 130.203786 
L 315.938638 129.656719 
L 318.21515 129.61617 
L 320.491662 131.091996 
L 322.768175 131.144032 
L 325.044687 131.40785 
L 327.321199 131.043888 
L 329.597711 132.486507 
L 331.874223 133.379081 
L 334.150736 133.36595 
L 336.427248 133.522254 
L 338.70376 134.836997 
L 340.980272 134.222799 
L 343.256784 134.596273 
L 345.533297 134.843592 
L 347.809809 134.598066 
L 350.086321 134.580284 
L 352.362833 133.709941 
L 354.639345 131.965106 
L 356.915858 132.371536 
L 359.19237 132.253849 
L 361.468882 132.913439 
L 363.745394 133.886062 
L 366.021906 134.026458 
L 368.298419 134.797534 
L 370.574931 135.053546 
L 372.851443 134.658612 
L 375.127955 135.615035 
L 379.68098 135.947812 
L 381.957492 135.879822 
L 384.234004 135.200995 
L 386.510516 135.656126 
L 388.787028 136.643983 
L 391.063541 136.480385 
L 393.340053 137.547414 
L 395.616565 137.570697 
L 397.893077 136.603347 
L 400.169589 137.286908 
L 402.446102 136.679815 
L 404.722614 137.142166 
L 406.999126 137.371487 
L 409.275638 136.91092 
L 411.55215 135.990301 
L 413.828663 137.101528 
L 416.105175 136.949766 
L 418.381687 136.667302 
L 420.658199 136.624391 
L 422.934711 136.158628 
L 425.211224 136.949931 
L 427.487736 137.416825 
L 429.764248 136.710523 
L 432.04076 136.273136 
L 434.317272 135.998918 
L 436.593785 137.006747 
L 438.870297 136.757207 
L 441.146809 137.333816 
L 443.423321 137.406279 
L 445.699833 137.61743 
L 447.976346 137.300174 
L 450.252858 137.992287 
L 452.52937 137.242933 
L 454.805882 136.797912 
L 457.082394 137.922031 
L 459.358907 138.831756 
L 461.635419 138.336896 
L 463.911931 138.389228 
L 466.188443 138.997114 
L 468.464955 138.154409 
L 470.741467 139.36966 
L 473.01798 138.836893 
L 475.294492 139.564857 
L 477.571004 137.917347 
L 479.847516 137.051761 
L 482.124028 137.9105 
L 484.400541 137.958953 
L 486.677053 138.369535 
L 488.953565 138.653328 
L 491.230077 137.436613 
L 493.506589 136.981727 
L 495.783102 136.369481 
L 498.059614 137.367682 
L 500.336126 137.831618 
L 502.612638 137.565661 
L 504.88915 138.035743 
L 507.165663 136.642461 
L 509.442175 135.75662 
L 511.718687 135.675226 
L 513.995199 136.399206 
L 516.271711 136.517804 
L 518.548224 136.133924 
L 518.548224 136.133924 
" clip-path="url(#p583abb183e)" style="fill: none; stroke-dasharray: 5.55,2.4; stroke-dashoffset: 0; stroke: #4daf4a; stroke-opacity: 0.8; stroke-width: 1.5"/>
   </g>
   <g id="patch_3">
    <path d="M 42.871 145.363258 
L 42.871 17.798437 
" style="fill: none; stroke: #cccccc; stroke-linejoin: miter; stroke-linecap: square"/>
   </g>
   <g id="patch_4">
    <path d="M 541.19952 145.363258 
L 541.19952 17.798437 
" style="fill: none; stroke: #cccccc; stroke-linejoin: miter; stroke-linecap: square"/>
   </g>
   <g id="patch_5">
    <path d="M 42.871 145.363258 
L 541.19952 145.363258 
" style="fill: none; stroke: #cccccc; stroke-linejoin: miter; stroke-linecap: square"/>
   </g>
   <g id="patch_6">
    <path d="M 42.871 17.798437 
L 541.19952 17.798437 
" style="fill: none; stroke: #cccccc; stroke-linejoin: miter; stroke-linecap: square"/>
   </g>
   <g id="legend_1">
    <g id="patch_7">
     <path d="M 135.070072 210.127963 
L 449.000448 210.127963 
Q 450.760448 210.127963 450.760448 208.367963 
L 450.760448 183.414463 
Q 450.760448 181.654463 449.000448 181.654463 
L 135.070072 181.654463 
Q 133.310072 181.654463 133.310072 183.414463 
L 133.310072 208.367963 
Q 133.310072 210.127963 135.070072 210.127963 
z
" style="fill: #ffffff; opacity: 0.8; stroke: #cccccc; stroke-width: 0.8; stroke-linejoin: miter"/>
    </g>
    <g id="line2d_22">
     <path d="M 136.830072 188.781088 
L 145.630073 188.781088 
L 154.430072 188.781088 
" style="fill: none; stroke: #e41a1c; stroke-width: 2; stroke-linecap: round"/>
    </g>
    <g id="text_17">
     <!-- No Byzantine -->
     <g style="fill: #262626" transform="translate(161.470073 191.861088) scale(0.088 -0.088)">
      <defs>
       <path id="DejaVuSans-4e" d="M 628 4666 
L 1478 4666 
L 3547 763 
L 3547 4666 
L 4159 4666 
L 4159 0 
L 3309 0 
L 1241 3903 
L 1241 0 
L 628 0 
L 628 4666 
z
" transform="scale(0.015625)"/>
       <path id="DejaVuSans-6f" d="M 1959 3097 
Q 1497 3097 1228 2736 
Q 959 2375 959 1747 
Q 959 1119 1226 758 
Q 1494 397 1959 397 
Q 2419 397 2687 759 
Q 2956 1122 2956 1747 
Q 2956 2369 2687 2733 
Q 2419 3097 1959 3097 
z
M 1959 3584 
Q 2709 3584 3137 3096 
Q 3566 2609 3566 1747 
Q 3566 888 3137 398 
Q 2709 -91 1959 -91 
Q 1206 -91 779 398 
Q 353 888 353 1747 
Q 353 2609 779 3096 
Q 1206 3584 1959 3584 
z
" transform="scale(0.015625)"/>
       <path id="DejaVuSans-20" transform="scale(0.015625)"/>
       <path id="DejaVuSans-42" d="M 1259 2228 
L 1259 519 
L 2272 519 
Q 2781 519 3026 730 
Q 3272 941 3272 1375 
Q 3272 1813 3026 2020 
Q 2781 2228 2272 2228 
L 1259 2228 
z
M 1259 4147 
L 1259 2741 
L 2194 2741 
Q 2656 2741 2882 2914 
Q 3109 3088 3109 3444 
Q 3109 3797 2882 3972 
Q 2656 4147 2194 4147 
L 1259 4147 
z
M 628 4666 
L 2241 4666 
Q 2963 4666 3353 4366 
Q 3744 4066 3744 3513 
Q 3744 3084 3544 2831 
Q 3344 2578 2956 2516 
Q 3422 2416 3680 2098 
Q 3938 1781 3938 1306 
Q 3938 681 3513 340 
Q 3088 0 2303 0 
L 628 0 
L 628 4666 
z
" transform="scale(0.015625)"/>
       <path id="DejaVuSans-79" d="M 2059 -325 
Q 1816 -950 1584 -1140 
Q 1353 -1331 966 -1331 
L 506 -1331 
L 506 -850 
L 844 -850 
Q 1081 -850 1212 -737 
Q 1344 -625 1503 -206 
L 1606 56 
L 191 3500 
L 800 3500 
L 1894 763 
L 2988 3500 
L 3597 3500 
L 2059 -325 
z
" transform="scale(0.015625)"/>
       <path id="DejaVuSans-7a" d="M 353 3500 
L 3084 3500 
L 3084 2975 
L 922 459 
L 3084 459 
L 3084 0 
L 275 0 
L 275 525 
L 2438 3041 
L 353 3041 
L 353 3500 
z
" transform="scale(0.015625)"/>
       <path id="DejaVuSans-61" d="M 2194 1759 
Q 1497 1759 1228 1600 
Q 959 1441 959 1056 
Q 959 750 1161 570 
Q 1363 391 1709 391 
Q 2188 391 2477 730 
Q 2766 1069 2766 1631 
L 2766 1759 
L 2194 1759 
z
M 3341 1997 
L 3341 0 
L 2766 0 
L 2766 531 
Q 2569 213 2275 61 
Q 1981 -91 1556 -91 
Q 1019 -91 701 211 
Q 384 513 384 1019 
Q 384 1609 779 1909 
Q 1175 2209 1959 2209 
L 2766 2209 
L 2766 2266 
Q 2766 2663 2505 2880 
Q 2244 3097 1772 3097 
Q 1472 3097 1187 3025 
Q 903 2953 641 2809 
L 641 3341 
Q 956 3463 1253 3523 
Q 1550 3584 1831 3584 
Q 2591 3584 2966 3190 
Q 3341 2797 3341 1997 
z
" transform="scale(0.015625)"/>
       <path id="DejaVuSans-6e" d="M 3513 2113 
L 3513 0 
L 2938 0 
L 2938 2094 
Q 2938 2591 2744 2837 
Q 2550 3084 2163 3084 
Q 1697 3084 1428 2787 
Q 1159 2491 1159 1978 
L 1159 0 
L 581 0 
L 581 3500 
L 1159 3500 
L 1159 2956 
Q 1366 3272 1645 3428 
Q 1925 3584 2291 3584 
Q 2894 3584 3203 3211 
Q 3513 2838 3513 2113 
z
" transform="scale(0.015625)"/>
       <path id="DejaVuSans-65" d="M 3597 1894 
L 3597 1613 
L 953 1613 
Q 991 1019 1311 708 
Q 1631 397 2203 397 
Q 2534 397 2845 478 
Q 3156 559 3463 722 
L 3463 178 
Q 3153 47 2828 -22 
Q 2503 -91 2169 -91 
Q 1331 -91 842 396 
Q 353 884 353 1716 
Q 353 2575 817 3079 
Q 1281 3584 2069 3584 
Q 2775 3584 3186 3129 
Q 3597 2675 3597 1894 
z
M 3022 2063 
Q 3016 2534 2758 2815 
Q 2500 3097 2075 3097 
Q 1594 3097 1305 2825 
Q 1016 2553 972 2059 
L 3022 2063 
z
" transform="scale(0.015625)"/>
      </defs>
      <use xlink:href="#DejaVuSans-4e"/>
      <use xlink:href="#DejaVuSans-6f" transform="translate(74.804688 0)"/>
      <use xlink:href="#DejaVuSans-20" transform="translate(135.986328 0)"/>
      <use xlink:href="#DejaVuSans-42" transform="translate(167.773438 0)"/>
      <use xlink:href="#DejaVuSans-79" transform="translate(236.376953 0)"/>
      <use xlink:href="#DejaVuSans-7a" transform="translate(295.556641 0)"/>
      <use xlink:href="#DejaVuSans-61" transform="translate(348.046875 0)"/>
      <use xlink:href="#DejaVuSans-6e" transform="translate(409.326172 0)"/>
      <use xlink:href="#DejaVuSans-74" transform="translate(472.705078 0)"/>
      <use xlink:href="#DejaVuSans-69" transform="translate(511.914062 0)"/>
      <use xlink:href="#DejaVuSans-6e" transform="translate(539.697266 0)"/>
      <use xlink:href="#DejaVuSans-65" transform="translate(603.076172 0)"/>
     </g>
    </g>
    <g id="line2d_23">
     <path d="M 136.830072 201.697838 
L 145.630073 201.697838 
L 154.430072 201.697838 
" style="fill: none; stroke: #377eb8; stroke-width: 2; stroke-linecap: round"/>
    </g>
    <g id="text_18">
     <!-- Obs. Noise -->
     <g style="fill: #262626" transform="translate(161.470073 204.777838) scale(0.088 -0.088)">
      <defs>
       <path id="DejaVuSans-4f" d="M 2522 4238 
Q 1834 4238 1429 3725 
Q 1025 3213 1025 2328 
Q 1025 1447 1429 934 
Q 1834 422 2522 422 
Q 3209 422 3611 934 
Q 4013 1447 4013 2328 
Q 4013 3213 3611 3725 
Q 3209 4238 2522 4238 
z
M 2522 4750 
Q 3503 4750 4090 4092 
Q 4678 3434 4678 2328 
Q 4678 1225 4090 567 
Q 3503 -91 2522 -91 
Q 1538 -91 948 565 
Q 359 1222 359 2328 
Q 359 3434 948 4092 
Q 1538 4750 2522 4750 
z
" transform="scale(0.015625)"/>
      </defs>
      <use xlink:href="#DejaVuSans-4f"/>
      <use xlink:href="#DejaVuSans-62" transform="translate(78.710938 0)"/>
      <use xlink:href="#DejaVuSans-73" transform="translate(142.1875 0)"/>
      <use xlink:href="#DejaVuSans-2e" transform="translate(194.287109 0)"/>
      <use xlink:href="#DejaVuSans-20" transform="translate(226.074219 0)"/>
      <use xlink:href="#DejaVuSans-4e" transform="translate(257.861328 0)"/>
      <use xlink:href="#DejaVuSans-6f" transform="translate(332.666016 0)"/>
      <use xlink:href="#DejaVuSans-69" transform="translate(393.847656 0)"/>
      <use xlink:href="#DejaVuSans-73" transform="translate(421.630859 0)"/>
      <use xlink:href="#DejaVuSans-65" transform="translate(473.730469 0)"/>
     </g>
    </g>
    <g id="line2d_24">
     <path d="M 224.355698 188.781088 
L 233.155698 188.781088 
L 241.955698 188.781088 
" style="fill: none; stroke: #4daf4a; stroke-width: 2; stroke-linecap: round"/>
    </g>
    <g id="text_19">
     <!-- Obs. Replay -->
     <g style="fill: #262626" transform="translate(248.995698 191.861088) scale(0.088 -0.088)">
      <defs>
       <path id="DejaVuSans-52" d="M 2841 2188 
Q 3044 2119 3236 1894 
Q 3428 1669 3622 1275 
L 4263 0 
L 3584 0 
L 2988 1197 
Q 2756 1666 2539 1819 
Q 2322 1972 1947 1972 
L 1259 1972 
L 1259 0 
L 628 0 
L 628 4666 
L 2053 4666 
Q 2853 4666 3247 4331 
Q 3641 3997 3641 3322 
Q 3641 2881 3436 2590 
Q 3231 2300 2841 2188 
z
M 1259 4147 
L 1259 2491 
L 2053 2491 
Q 2509 2491 2742 2702 
Q 2975 2913 2975 3322 
Q 2975 3731 2742 3939 
Q 2509 4147 2053 4147 
L 1259 4147 
z
" transform="scale(0.015625)"/>
       <path id="DejaVuSans-70" d="M 1159 525 
L 1159 -1331 
L 581 -1331 
L 581 3500 
L 1159 3500 
L 1159 2969 
Q 1341 3281 1617 3432 
Q 1894 3584 2278 3584 
Q 2916 3584 3314 3078 
Q 3713 2572 3713 1747 
Q 3713 922 3314 415 
Q 2916 -91 2278 -91 
Q 1894 -91 1617 61 
Q 1341 213 1159 525 
z
M 3116 1747 
Q 3116 2381 2855 2742 
Q 2594 3103 2138 3103 
Q 1681 3103 1420 2742 
Q 1159 2381 1159 1747 
Q 1159 1113 1420 752 
Q 1681 391 2138 391 
Q 2594 391 2855 752 
Q 3116 1113 3116 1747 
z
" transform="scale(0.015625)"/>
       <path id="DejaVuSans-6c" d="M 603 4863 
L 1178 4863 
L 1178 0 
L 603 0 
L 603 4863 
z
" transform="scale(0.015625)"/>
      </defs>
      <use xlink:href="#DejaVuSans-4f"/>
      <use xlink:href="#DejaVuSans-62" transform="translate(78.710938 0)"/>
      <use xlink:href="#DejaVuSans-73" transform="translate(142.1875 0)"/>
      <use xlink:href="#DejaVuSans-2e" transform="translate(194.287109 0)"/>
      <use xlink:href="#DejaVuSans-20" transform="translate(226.074219 0)"/>
      <use xlink:href="#DejaVuSans-52" transform="translate(257.861328 0)"/>
      <use xlink:href="#DejaVuSans-65" transform="translate(322.84375 0)"/>
      <use xlink:href="#DejaVuSans-70" transform="translate(384.367188 0)"/>
      <use xlink:href="#DejaVuSans-6c" transform="translate(447.84375 0)"/>
      <use xlink:href="#DejaVuSans-61" transform="translate(475.626953 0)"/>
      <use xlink:href="#DejaVuSans-79" transform="translate(536.90625 0)"/>
     </g>
    </g>
    <g id="line2d_25">
     <path d="M 224.355698 201.697838 
L 233.155698 201.697838 
L 241.955698 201.697838 
" style="fill: none; stroke-dasharray: 5.55,2.4; stroke-dashoffset: 0; stroke: #e41a1c; stroke-opacity: 0.8; stroke-width: 1.5"/>
    </g>
    <g id="text_20">
     <!-- No Byzantine (GTM) -->
     <g style="fill: #262626" transform="translate(248.995698 204.777838) scale(0.088 -0.088)">
      <defs>
       <path id="DejaVuSans-28" d="M 1984 4856 
Q 1566 4138 1362 3434 
Q 1159 2731 1159 2009 
Q 1159 1288 1364 580 
Q 1569 -128 1984 -844 
L 1484 -844 
Q 1016 -109 783 600 
Q 550 1309 550 2009 
Q 550 2706 781 3412 
Q 1013 4119 1484 4856 
L 1984 4856 
z
" transform="scale(0.015625)"/>
       <path id="DejaVuSans-47" d="M 3809 666 
L 3809 1919 
L 2778 1919 
L 2778 2438 
L 4434 2438 
L 4434 434 
Q 4069 175 3628 42 
Q 3188 -91 2688 -91 
Q 1594 -91 976 548 
Q 359 1188 359 2328 
Q 359 3472 976 4111 
Q 1594 4750 2688 4750 
Q 3144 4750 3555 4637 
Q 3966 4525 4313 4306 
L 4313 3634 
Q 3963 3931 3569 4081 
Q 3175 4231 2741 4231 
Q 1884 4231 1454 3753 
Q 1025 3275 1025 2328 
Q 1025 1384 1454 906 
Q 1884 428 2741 428 
Q 3075 428 3337 486 
Q 3600 544 3809 666 
z
" transform="scale(0.015625)"/>
       <path id="DejaVuSans-54" d="M -19 4666 
L 3928 4666 
L 3928 4134 
L 2272 4134 
L 2272 0 
L 1638 0 
L 1638 4134 
L -19 4134 
L -19 4666 
z
" transform="scale(0.015625)"/>
       <path id="DejaVuSans-29" d="M 513 4856 
L 1013 4856 
Q 1481 4119 1714 3412 
Q 1947 2706 1947 2009 
Q 1947 1309 1714 600 
Q 1481 -109 1013 -844 
L 513 -844 
Q 928 -128 1133 580 
Q 1338 1288 1338 2009 
Q 1338 2731 1133 3434 
Q 928 4138 513 4856 
z
" transform="scale(0.015625)"/>
      </defs>
      <use xlink:href="#DejaVuSans-4e"/>
      <use xlink:href="#DejaVuSans-6f" transform="translate(74.804688 0)"/>
      <use xlink:href="#DejaVuSans-20" transform="translate(135.986328 0)"/>
      <use xlink:href="#DejaVuSans-42" transform="translate(167.773438 0)"/>
      <use xlink:href="#DejaVuSans-79" transform="translate(236.376953 0)"/>
      <use xlink:href="#DejaVuSans-7a" transform="translate(295.556641 0)"/>
      <use xlink:href="#DejaVuSans-61" transform="translate(348.046875 0)"/>
      <use xlink:href="#DejaVuSans-6e" transform="translate(409.326172 0)"/>
      <use xlink:href="#DejaVuSans-74" transform="translate(472.705078 0)"/>
      <use xlink:href="#DejaVuSans-69" transform="translate(511.914062 0)"/>
      <use xlink:href="#DejaVuSans-6e" transform="translate(539.697266 0)"/>
      <use xlink:href="#DejaVuSans-65" transform="translate(603.076172 0)"/>
      <use xlink:href="#DejaVuSans-20" transform="translate(664.599609 0)"/>
      <use xlink:href="#DejaVuSans-28" transform="translate(696.386719 0)"/>
      <use xlink:href="#DejaVuSans-47" transform="translate(735.400391 0)"/>
      <use xlink:href="#DejaVuSans-54" transform="translate(809.265625 0)"/>
      <use xlink:href="#DejaVuSans-4d" transform="translate(870.349609 0)"/>
      <use xlink:href="#DejaVuSans-29" transform="translate(956.628906 0)"/>
     </g>
    </g>
    <g id="line2d_26">
     <path d="M 341.012073 188.781088 
L 349.812073 188.781088 
L 358.612073 188.781088 
" style="fill: none; stroke-dasharray: 5.55,2.4; stroke-dashoffset: 0; stroke: #377eb8; stroke-opacity: 0.8; stroke-width: 1.5"/>
    </g>
    <g id="text_21">
     <!-- Obs. Noise (GTM) -->
     <g style="fill: #262626" transform="translate(365.652073 191.861088) scale(0.088 -0.088)">
      <use xlink:href="#DejaVuSans-4f"/>
      <use xlink:href="#DejaVuSans-62" transform="translate(78.710938 0)"/>
      <use xlink:href="#DejaVuSans-73" transform="translate(142.1875 0)"/>
      <use xlink:href="#DejaVuSans-2e" transform="translate(194.287109 0)"/>
      <use xlink:href="#DejaVuSans-20" transform="translate(226.074219 0)"/>
      <use xlink:href="#DejaVuSans-4e" transform="translate(257.861328 0)"/>
      <use xlink:href="#DejaVuSans-6f" transform="translate(332.666016 0)"/>
      <use xlink:href="#DejaVuSans-69" transform="translate(393.847656 0)"/>
      <use xlink:href="#DejaVuSans-73" transform="translate(421.630859 0)"/>
      <use xlink:href="#DejaVuSans-65" transform="translate(473.730469 0)"/>
      <use xlink:href="#DejaVuSans-20" transform="translate(535.253906 0)"/>
      <use xlink:href="#DejaVuSans-28" transform="translate(567.041016 0)"/>
      <use xlink:href="#DejaVuSans-47" transform="translate(606.054688 0)"/>
      <use xlink:href="#DejaVuSans-54" transform="translate(679.919922 0)"/>
      <use xlink:href="#DejaVuSans-4d" transform="translate(741.003906 0)"/>
      <use xlink:href="#DejaVuSans-29" transform="translate(827.283203 0)"/>
     </g>
    </g>
    <g id="line2d_27">
     <path d="M 341.012073 201.697838 
L 349.812073 201.697838 
L 358.612073 201.697838 
" style="fill: none; stroke-dasharray: 5.55,2.4; stroke-dashoffset: 0; stroke: #4daf4a; stroke-opacity: 0.8; stroke-width: 1.5"/>
    </g>
    <g id="text_22">
     <!-- Obs. Replay (GTM) -->
     <g style="fill: #262626" transform="translate(365.652073 204.777838) scale(0.088 -0.088)">
      <use xlink:href="#DejaVuSans-4f"/>
      <use xlink:href="#DejaVuSans-62" transform="translate(78.710938 0)"/>
      <use xlink:href="#DejaVuSans-73" transform="translate(142.1875 0)"/>
      <use xlink:href="#DejaVuSans-2e" transform="translate(194.287109 0)"/>
      <use xlink:href="#DejaVuSans-20" transform="translate(226.074219 0)"/>
      <use xlink:href="#DejaVuSans-52" transform="translate(257.861328 0)"/>
      <use xlink:href="#DejaVuSans-65" transform="translate(322.84375 0)"/>
      <use xlink:href="#DejaVuSans-70" transform="translate(384.367188 0)"/>
      <use xlink:href="#DejaVuSans-6c" transform="translate(447.84375 0)"/>
      <use xlink:href="#DejaVuSans-61" transform="translate(475.626953 0)"/>
      <use xlink:href="#DejaVuSans-79" transform="translate(536.90625 0)"/>
      <use xlink:href="#DejaVuSans-20" transform="translate(596.085938 0)"/>
      <use xlink:href="#DejaVuSans-28" transform="translate(627.873047 0)"/>
      <use xlink:href="#DejaVuSans-47" transform="translate(666.886719 0)"/>
      <use xlink:href="#DejaVuSans-54" transform="translate(740.751953 0)"/>
      <use xlink:href="#DejaVuSans-4d" transform="translate(801.835938 0)"/>
      <use xlink:href="#DejaVuSans-29" transform="translate(888.115234 0)"/>
     </g>
    </g>
   </g>
  </g>
 </g>
 <defs>
  <clipPath id="p583abb183e">
   <rect x="42.871" y="17.798437" width="498.32852" height="127.564821"/>
  </clipPath>
 </defs>
</svg>
